<?xml version="1.0" encoding="UTF-8" standalone="no"?><!DOCTYPE svg PUBLIC "-//W3C//DTD SVG 1.1//EN" "http://www.w3.org/Graphics/SVG/1.1/DTD/svg11.dtd"><svg width="100%" height="100%" viewBox="0 0 3508 1887" version="1.1" xmlns="http://www.w3.org/2000/svg" xmlns:xlink="http://www.w3.org/1999/xlink" xml:space="preserve" xmlns:serif="http://www.serif.com/" style="fill-rule:evenodd;clip-rule:evenodd;stroke-linecap:square;stroke-linejoin:round;stroke-miterlimit:2;"><rect id="Artboard1" x="0" y="0" width="3507.87" height="1886.81" style="fill:none;"/><clipPath id="_clip1"><rect id="Artboard11" serif:id="Artboard1" x="0" y="0" width="3507.87" height="1886.81"/></clipPath><g clip-path="url(#_clip1)"><g><g><clipPath id="_clip2"><rect x="0" y="0" width="3507.87" height="2480.32"/></clipPath><g clip-path="url(#_clip2)"><rect x="0" y="0" width="3507.87" height="2480.32" style="fill:#fff;"/></g></g><g><clipPath id="_clip3"><rect x="319.116" y="1281.5" width="3117.89" height="522.638"/></clipPath><g clip-path="url(#_clip3)"><rect x="319.116" y="1281.56" width="3326.27" height="522.513" style="fill:#fff;fill-rule:nonzero;"/><path d="M319.116,1804.07l3326.27,-0" style="fill:none;stroke:#262626;stroke-width:8.33px;"/><path d="M319.116,1804.07l-0,-23.871" style="fill:none;stroke:#262626;stroke-width:8.33px;"/><path d="M734.894,1804.07l0,-23.871" style="fill:none;stroke:#262626;stroke-width:8.33px;"/><path d="M1150.68,1804.07l-0,-23.871" style="fill:none;stroke:#262626;stroke-width:8.33px;"/><path d="M1566.46,1804.07l0,-23.871" style="fill:none;stroke:#262626;stroke-width:8.33px;"/><path d="M1982.25,1804.07l-0,-23.871" style="fill:none;stroke:#262626;stroke-width:8.33px;"/><path d="M2398.03,1804.07l0,-23.871" style="fill:none;stroke:#262626;stroke-width:8.33px;"/><path d="M2813.82,1804.07l-0,-23.871" style="fill:none;stroke:#262626;stroke-width:8.33px;"/><path d="M3229.6,1804.07l0,-23.871" style="fill:none;stroke:#262626;stroke-width:8.33px;"/><path d="M319.116,1804.07l-0,-522.513" style="fill:none;stroke:#262626;stroke-width:8.33px;"/><path d="M319.116,1751.82l33.252,-0" style="fill:none;stroke:#262626;stroke-width:8.33px;"/><path d="M319.116,1647.31l33.252,-0" style="fill:none;stroke:#262626;stroke-width:8.33px;"/><path d="M319.116,1542.81l33.252,0" style="fill:none;stroke:#262626;stroke-width:8.33px;"/><path d="M319.116,1438.31l33.252,-0" style="fill:none;stroke:#262626;stroke-width:8.33px;"/><path d="M319.116,1333.81l33.252,0" style="fill:none;stroke:#262626;stroke-width:8.33px;"/><path d="M323.275,1563.04l4.149,-10.017l4.169,7.377l4.149,-17.681l4.159,-12.87l4.159,16.324l4.159,35.384l4.149,33.698l4.159,29.752l4.159,-64.917l4.16,-69.257l4.159,3.887l4.159,-41.904l4.159,53.278l4.149,44.038l4.169,19.323l4.159,1.68l4.149,-1.746l4.169,2.435l4.149,-37.379l4.159,34.812l4.16,-32.758l4.159,-59.358l4.149,39.938l4.169,57.085l4.149,22.755l4.159,-28.578l4.159,-74.692l4.159,-41.046l4.159,9.519l4.149,33.8l4.169,-14.835l4.149,-26.364l4.159,2.068l4.17,13.149l4.149,-0.844l4.159,-72.374l4.159,55.947l4.159,61.55l4.159,-39.036l4.159,29.415l4.149,-30.302l4.159,24.332l4.159,43.481l4.159,-47.653l4.16,-4.481l4.149,-36.279l4.169,-21.861l4.149,-38.193l4.159,10.575l4.169,39.593l4.149,-48.438l4.159,4.863l4.159,9.511l4.159,18.459l4.16,23.65l4.159,-38.061l4.149,-14.065l4.159,-23.959l4.159,-1.195l4.159,-10.297l4.159,-68.465l4.149,37.753l4.169,93.627l4.149,21.692l4.159,-17.388l4.17,-11.506l4.148,-30.551l4.16,-29.848l4.159,40.019l4.159,30.603l4.159,-11.154l4.159,-9.197l4.149,-0.176l4.169,10.627l4.149,-13.465l4.159,7.855l4.159,17.248l4.149,-5.442l4.17,51.936l4.148,52.076l4.16,47.844l4.159,35.868l4.159,-22.565l4.159,-40.437l4.159,-66.009l4.159,-9.49l4.159,14.828l4.159,24.722l4.149,-19.331l4.17,-49.876l4.148,56.058l4.16,4.796l4.159,-51.731l4.149,23.013l4.169,-12.159l4.149,18.099l4.159,76.43l4.159,-16.31l4.159,-29.796l4.159,-9.585l4.159,-35.23l4.159,-6.996l4.16,16.104l4.148,30.574l4.16,12.613l4.169,18.143l4.149,13.582l4.159,-65.334l4.159,-42.579l4.149,-15.583l4.159,7.443l4.169,21.744l4.149,-15.18l4.159,65.591l4.159,64.557l4.16,-32.803l4.159,-15.885l4.149,-2.119l4.169,10.216l4.159,0.388l4.149,-10.516l4.159,-35.839l4.159,-42.769l4.159,22.69l4.159,-28.307l4.159,-45.938l4.16,33.434l4.149,16.72l4.159,-24.208l4.159,62.812l4.159,59.064l4.149,-19.294l4.169,11.873l4.159,-49.054l4.159,-61.558l4.149,-29.525l4.159,5.559l4.17,41.955l4.149,-51.085l4.159,23.489l4.159,41.581l4.149,5.016l4.169,42.909l4.159,-42.557l4.149,-48.386l4.159,-15.745l4.159,23.878l4.159,21.186l4.159,31.138l4.149,26.87l4.17,-27.742l4.159,-25.448l4.149,-5.646l4.159,-32.048l4.159,-21.964l4.159,34.996l4.159,31.622l4.159,48.614l4.159,-1.716l4.149,-20.505l4.159,-14.058l4.159,-38.56l4.16,-52.273l4.149,-25.11l4.169,41.361l4.159,35.465l4.159,39.161l4.149,-6.666l4.159,-43.473l4.169,-44.838l4.149,-12.533l4.159,-22.623l4.159,9.511l4.16,133.514l4.159,21.077l4.159,2.86l4.149,2.794l4.159,-37.68l4.159,8.507l4.159,-16.222l4.159,30.383l4.149,-4.085l4.169,-37.921l4.16,72.33l4.148,65.18l4.16,-21.267l4.159,-44.397l4.159,-44.661l4.159,-11.66l4.149,-4.496l4.169,77.912l4.149,31.086l4.159,-36.587l4.169,-13.53l4.149,-13.274l4.159,6.241l4.16,5.449l4.159,-9.438l4.159,-65.144l4.149,25.873l4.159,-16.948l4.169,25.455l4.149,105.918l4.159,-16.237l4.159,-7.685l4.159,-20.475l4.159,-60.964l4.16,-2.442l4.148,36.602l4.16,1.65l4.159,2.654l4.159,26.966l4.159,12.012l4.149,8.551l4.169,-3.425l4.159,-19.727l4.149,11.976l4.159,-12.658l4.159,-2.559l4.16,64.439l4.159,86.851l4.148,-32.289l4.17,-74.736l4.159,-25.389l4.149,8.133l4.169,27.185l4.149,-45.108l4.159,3.469l4.159,-7.869l4.159,-11.925l4.16,53.836l4.148,-22.661l4.159,-58.081l4.17,-16.237l4.149,32.972l4.159,3.19l4.159,-21.663l4.159,-15.467l4.159,-34.533l4.149,23.386l4.159,3.447l4.159,-33.932l4.159,5.859l4.16,7.664l4.159,-16.258l4.148,34.709l4.17,4.62l4.159,-52.097l4.149,-8.067l4.159,14.205l4.159,48.563l4.159,15.613l4.159,4.884l4.149,-0.719l4.17,-62.533l4.159,-56.409l4.149,-72.587l4.169,3.688l4.149,61.815l4.159,8.602l4.159,102.046l4.159,-10.392l4.159,-47.572l4.149,41.258l4.159,-46.949l4.17,-47.888l4.148,-13.186l4.16,70.827l4.159,58.661l4.159,-9.966l4.159,24.868l4.149,-2.486l4.159,-46.451l4.169,-45.732l4.149,-71.721l4.159,-11.543l4.159,23.027l4.149,38.545l4.17,90.76l4.159,27.222l4.149,21.435l4.159,3.623l4.159,-105.228l4.159,-103.095l4.159,-50.484l4.149,25.235l4.169,121.149l4.159,103.902l4.149,53.351l4.159,17.776l4.16,-124.178l4.159,-89.696l4.159,12.716l4.159,28.007l4.159,43.48l4.149,45.871l4.159,42.058l4.169,-27.215l4.149,-45.005l4.159,-111.455l4.159,-0.47l4.16,47.199l4.159,24.501l4.148,63.369l4.16,1.225l4.169,105.742l4.149,9.416l4.159,-119.544l4.159,-56.02l4.149,-56.901l4.169,-1.936l4.159,43.693l4.149,15.07l4.159,44.815l4.16,34.233l4.159,-2.251l4.159,-30.764l4.149,-58.61l4.169,-10.171l4.159,-18.173l4.149,11.052l4.159,36.976l4.159,22.631l4.159,58.925l4.159,-0.008l4.16,-27.222l4.159,-29.202l4.148,12.188l4.16,1.738l4.169,-10.516l4.149,21.121l4.159,2.662l4.159,22.484l4.159,-61.85l4.159,-36.235l4.149,21.905l4.159,-4.598l4.159,31.013l4.16,88.67l4.159,10.963l4.159,-47.785l4.159,-133.001l4.036,-135.545" style="fill:none;stroke:#0072bd;stroke-width:8.33px;stroke-linecap:butt;"/><path d="M1749.79,1281.5l3.781,39.242l4.149,91.221l4.159,90.936l4.159,105.771l4.159,67.667l4.16,-56.74l4.159,-85.692l4.159,-112.606l4.159,-93.385l4.149,61.887l4.159,76.841l4.159,31.006l4.159,16.479l4.159,29.832l4.159,45.615l4.149,-46.209l4.159,-87.203l4.159,-47.484l4.16,-8.544l4.159,58.375l4.159,36.052l4.159,51.51l4.159,-14.329l4.159,-114.77l4.149,8.683l4.159,31.358l4.159,36.389l4.159,45.394l4.159,-9.907l4.16,4.268l4.159,42.388l4.159,-11.221l4.149,-61.902l4.159,-20.174l4.169,32.407l4.149,63.764l4.159,6.872l4.159,-62.746l4.149,-54.62l4.169,-38.303l4.149,-14.63l4.159,66.97l4.17,-0.037l4.149,37.628l4.159,41.765l4.159,30.47l4.149,23.563l4.169,-142.849l4.159,-63.237l4.149,-26.284l4.169,77.42l4.149,100.059l4.159,-28.374l4.16,-12.063l4.148,-28.689l4.17,-57.993l4.159,-47.214l4.149,-28.718l4.169,-50.198l4.149,58.866l4.159,114.829l4.159,80.346l4.149,14.938l4.169,-116.691l4.16,-101.026l4.148,-56.344l4.16,2.237l4.159,52.332l4.159,113.823l4.159,120.607l4.159,27.208l4.159,66.199l4.159,31.432l4.149,-134.042l4.159,-147.77l4.159,-95.629l3.189,-57.026" style="fill:none;stroke:#0072bd;stroke-width:8.33px;stroke-linecap:butt;"/><path d="M2070.99,1281.5l2.729,33.126l4.159,138.053l4.149,128.285l4.169,75.073l4.149,-28.014l4.159,-104.37l4.159,-113.831l4.159,-34.189l4.159,58.654l4.159,102.441l4.149,84.629l4.159,25.741l4.159,-51.393l4.16,-119.045l4.159,-79.84l4.159,-3.784l4.159,-10.707l4.159,69.455l4.159,118.151l4.149,95.115l4.159,54.657l4.17,-69.192l4.148,-52.757l4.16,-14.748l4.159,-52.97l4.148,-78.08l4.17,75.543l4.149,103.08l4.159,36.447l4.169,0.008l4.149,-94.727l4.159,-14.997l4.159,28.688l4.149,71.986l4.17,101.731l4.148,-3.916l4.16,-47.463l4.169,-35.743l4.149,-93.415l4.159,-84.548l4.159,36.631l4.149,96.164l4.169,49.89l4.159,30.918l4.149,31.41l4.17,-25.939l4.148,-101.129l4.16,-97.587l4.159,-48.159l4.148,27.816l4.17,121.949l4.159,103.395l4.149,28.857l4.159,0.529l4.159,-72.72l4.159,-112.364l4.159,-37.841l4.159,11.477l4.16,76.562l4.159,71.964l4.149,53.791l4.159,38.853l4.159,-34.284l4.159,-117.006l4.159,-141.992l4.159,1.357l4.159,75.176l4.159,65.803l4.149,81.256l4.159,59.189l4.16,-33.075l4.159,-41.478l4.159,-63.046l4.159,-110.406l4.149,30.881l4.159,4.019l4.159,15.4l4.159,96.722l4.159,39.711l4.159,47.507l4.159,-35.025l4.159,-102.105l4.16,-87.474l4.149,-36.697l4.158,-2.816l4.16,67.813l4.159,158.111l4.159,48.746l4.159,11.227l4.149,-52.104l4.169,-91.912l4.149,-73.195l4.159,-127.42l4.169,21.861l4.149,86.616l4.16,135.018l3.842,128.659" style="fill:none;stroke:#0072bd;stroke-width:8.33px;stroke-linecap:butt;"/><path d="M2473.87,1804.13l3.148,-33.192l4.169,-64.865l4.149,-28.732l4.159,3.725l4.169,65.774l4.149,-9.834l4.159,-44.067l4.159,-8.47l4.149,-32.532l4.169,-2.493l4.16,-41.823l4.149,-17.065l4.169,55.294l4.149,95.094l3.117,63.186" style="fill:none;stroke:#0072bd;stroke-width:8.33px;stroke-linecap:butt;"/><path d="M2537.29,1804.13l2.105,-21.509l4.149,-52.325l4.169,-42.19l4.159,-41.324l4.149,-25.741l4.17,3.557l4.149,66.559l4.159,50.433l4.159,45.203l4.159,-23.907l4.159,-73.401l4.159,-37.174l4.149,-95.599l4.159,-69.698l4.159,20.9l4.159,96.473l4.159,15.76l4.159,-19.896l4.16,-53.212l4.159,-63.765l4.149,85.978l4.159,16.61l4.159,23.453l4.159,32.7l4.159,-18.275l4.159,-35.45l4.159,-102.464l4.149,-49.758l4.159,22.917l4.16,24.377l4.158,19.023l4.16,-34.548l4.159,-11.551l4.159,73.519l4.159,72.638l4.149,-12.474l4.159,-34.863l4.159,-26.254l4.159,-44.72l4.159,-24.81l4.159,-61.755l4.16,78.601l4.159,132.04l4.148,10.934l4.16,-10.993l4.169,-37.658l4.149,-9.343l4.159,4.76l4.159,-8.14l4.149,-24.076l4.169,-16.875l4.149,29.305l4.159,8.668l4.17,19.119l4.149,-44.441l4.159,-33.654l4.159,27.772l4.149,33.698l4.169,60.068l4.159,-38.713l4.149,6.233l4.169,19.977l4.149,-3.638l4.159,18.752l4.16,-5.647l4.149,-41.595l4.169,-50.851l4.159,-19.133l4.149,-23.709l4.169,68.091l4.149,35.179l4.159,9.512l4.159,-16.647l4.149,-91.772l4.169,-33.015l4.159,-36.844l4.149,-26.899l4.16,48.724l4.159,82.458l4.159,35.061l4.159,17.153l4.159,-14.241l4.159,-57.077l4.159,-28.975l4.149,-49.574l4.159,-24.707l4.159,33.118l4.16,84.387l4.158,45.864l4.16,-34.035l4.159,-17.439l4.159,-22.896l4.149,8.434l4.159,-13.435l4.159,17.483l4.159,21.92l4.159,8.544l4.159,38.765l4.159,-30.816l4.149,-0.667l4.16,11.235l4.158,38.009l4.16,-19.39l4.159,-66.089l4.159,34.233l4.159,43.649l4.159,40.385l4.149,16.207l4.159,-14.131l4.169,-21.319l4.149,-82.905l4.159,-44.456l4.16,7.04l4.149,-27.926l4.169,72.705l4.149,57.737l4.159,24.677l4.169,44.903l4.149,-4.848l4.159,4.738l4.159,-47.155l4.149,-55.39l4.17,-52.801l4.148,-39.11l4.159,22.852l4.17,-4.254l4.149,47.037l4.159,30.126l4.159,-13.207l4.149,9.629l4.169,-28.22l4.159,-4.422l4.149,29.246l4.169,-23.21l4.149,-54.144l4.16,40.665l4.158,37.877l4.149,-9.746l4.17,-42.644l4.159,-55.324l4.149,15.334l4.169,-12.936l4.149,13.479l4.159,5.881l4.159,18.906l4.159,30.427l4.159,-49.164l4.16,1.914l4.149,21.084l4.159,86.183l4.159,18.29l4.159,-17.967l4.159,24.142l4.159,41.904l4.159,45.717l4.159,-64.477l4.149,-86.667l4.159,-37.995l4.16,31.593l4.158,36.865l4.16,42.755l4.159,22.352l4.159,-15.664l4.149,-32.737l4.159,13.215l4.159,23.834l4.159,3.3l4.159,3.579l4.159,-47.155l4.159,-40.62l4.16,-15.598l4.149,27.383l4.158,7.994l4.16,-25.668l4.159,9.996l4.159,34.731l4.159,46.509l4.149,-16.72l4.169,-27.244l4.149,-6.424l4.159,-53.946l4.169,-30.712l4.149,-4.312l4.16,-19.816l4.159,22.434l4.149,31.292l4.169,1.129l4.149,-26.379l4.159,-9.511l4.169,4.679l4.149,21.414l4.159,29.275l4.159,-61.088l4.149,-63.032l4.169,-0.44l4.16,35.59l4.149,64.601l4.169,17.542l4.149,-37.724l4.159,-13.494l4.159,14.198l4.149,-44.551l4.169,-87.966l4.159,18.077l4.149,27.142l4.17,-0.184l4.149,44.713l4.159,28.799l4.159,24.728l4.159,11.286l4.159,-15.297l4.159,-9.695l4.149,33.155l4.159,1.994l4.159,-54.473l4.159,1.203l4.159,-48.035l4.159,-53.527" style="fill:none;stroke:#0072bd;stroke-width:8.33px;stroke-linecap:butt;"/></g></g><g><g><clipPath id="_clip4"><rect x="2429.13" y="68.343" width="1007.88" height="485.077"/></clipPath><g clip-path="url(#_clip4)"><rect x="2475.23" y="72.574" width="1604.37" height="462.254" style="fill:#fff;fill-rule:nonzero;"/><path d="M2475.23,534.828l1604.37,0" style="fill:none;stroke:#262626;stroke-width:4.17px;"/><path d="M2475.23,534.828l-0,-9.212" style="fill:none;stroke:#262626;stroke-width:0.5px;"/><path d="M2796.1,534.828l0,-9.212" style="fill:none;stroke:#262626;stroke-width:4.17px;"/><path d="M3116.97,534.828l0,-9.212" style="fill:none;stroke:#262626;stroke-width:4.17px;"/><path d="M3442.13,548.647c-0,-2.954 1.932,-4.541 5.414,-4.541c3.572,0 5.414,1.613 5.414,4.67c-0,3.083 -1.842,4.644 -5.414,4.644c-3.572,0 -5.414,-1.6 -5.414,-4.773Zm5.414,-3.444c-2.179,-0 -3.235,1.096 -3.235,3.38c-0,2.528 0.831,3.792 3.235,3.792c2.359,0 3.235,-1.148 3.235,-3.599c-0,-2.412 -0.876,-3.573 -3.235,-3.573Z" style="fill:#262626;fill-rule:nonzero;"/><path d="M2481.64,534.828l77.01,0l6.417,-0.788l6.418,-2.364l6.417,-3.92l6.418,-5.45l6.417,-6.944l6.418,-8.39l6.417,-9.778l6.418,-11.101l6.417,-12.345l6.418,-13.508l6.417,-14.577l6.418,-15.547l6.417,-16.41l6.417,-17.161l6.418,-17.797l6.417,-18.308l6.418,-18.696l6.417,-18.955l6.418,-19.088l6.417,-19.086l6.418,-18.956l6.417,-18.695l6.418,-18.308l6.417,-17.797l6.418,-17.161l6.417,-16.411l6.418,-15.547l6.417,-14.577l6.417,-13.507l6.418,-12.345l6.417,-11.101l6.418,-9.779l6.417,-8.389l6.418,-6.945l6.417,-5.449l6.418,-3.922l6.417,-2.362l6.418,0.896l6.417,5.031l6.418,8.303l6.417,11.456l6.415,14.438l6.42,17.213l6.417,19.735l6.415,21.971l6.42,23.885l6.418,25.451l6.415,26.647l6.42,27.453l6.417,27.858l6.418,27.86l6.417,27.453l6.418,26.646l6.417,25.452l6.418,23.885l6.417,21.97l6.417,19.736l6.418,17.213l6.415,14.438l6.42,11.456l6.417,8.303l6.415,5.029l6.42,1.686l320.873,0" style="fill:none;stroke:#5c3880;stroke-width:8.33px;stroke-linecap:butt;"/><path d="M2481.64,534.828l77.01,0l6.417,-0.788l6.418,-2.364l6.417,-3.92l6.418,-5.45l6.417,-6.944l6.418,-8.39l6.417,-9.778l6.418,-11.101l6.417,-12.345l6.418,-13.508l6.417,-14.577l6.418,-15.547l6.417,-16.41l6.417,-17.161l6.418,-17.797l6.417,-18.308l6.418,-18.696l6.417,-18.955l6.418,-19.088l6.417,-19.086l6.418,-18.956l6.417,-18.695l6.418,-18.308l6.417,-17.797l6.418,-17.161l6.417,-16.411l6.418,-15.547l6.417,-14.577l6.417,-13.507l6.418,-12.345l6.417,-11.101l6.418,-9.779l6.417,-8.389l6.418,-6.945l6.417,-5.449l6.418,-3.922l6.417,-2.362l6.418,0.09l6.417,2.632l6.418,4.364l6.417,6.064l6.415,7.715l6.42,9.311l6.417,10.833l6.415,12.274l6.42,13.623l6.418,14.866l6.415,15.996l6.42,17.006l6.417,17.885l6.418,18.629l6.417,19.23l6.418,19.686l6.417,19.99l6.418,20.143l6.417,20.144l6.417,19.991l6.418,19.686l6.415,19.23l6.42,18.629l6.417,17.884l6.415,17.006l6.42,15.996l6.418,14.866l6.415,13.622l6.42,12.275l6.417,10.834l6.418,9.309l6.417,7.717l6.417,6.063l6.418,4.365l6.417,2.632l6.418,0.878l385.048,0" style="fill:none;stroke:#404688;stroke-width:8.33px;stroke-linecap:butt;"/><path d="M2481.64,534.828l77.01,0l6.417,-0.788l6.418,-2.364l6.417,-3.92l6.418,-5.45l6.417,-6.944l6.418,-8.39l6.417,-9.778l6.418,-11.101l6.417,-12.345l6.418,-13.508l6.417,-14.577l6.418,-15.547l6.417,-16.41l6.417,-17.161l6.418,-17.797l6.417,-18.308l6.418,-18.696l6.417,-18.955l6.418,-19.088l6.417,-19.086l6.418,-18.956l6.417,-18.695l6.418,-18.308l6.417,-17.797l6.418,-17.161l6.417,-16.411l6.418,-15.547l6.417,-14.577l6.417,-13.507l6.418,-12.345l6.417,-11.101l6.418,-9.779l6.417,-8.389l6.418,-6.945l6.417,-5.449l6.418,-3.922l6.417,-2.362l6.418,-0.251l6.417,1.616l6.418,2.68l6.417,3.737l6.415,4.774l6.42,5.789l6.417,6.779l6.415,7.734l6.42,8.656l6.418,9.536l6.415,10.372l6.42,11.16l6.417,11.894l6.418,12.576l6.417,13.195l6.418,13.757l6.417,14.252l6.418,14.682l6.417,15.043l6.417,15.332l6.418,15.552l6.415,15.7l6.42,15.772l6.417,15.773l6.415,15.699l6.42,15.553l6.418,15.333l6.415,15.043l6.42,14.68l6.417,14.253l6.418,13.758l6.417,13.195l6.417,12.575l6.418,11.895l6.417,11.16l6.418,10.372l6.417,9.536l6.418,8.654l6.417,7.736l6.418,6.777l6.417,5.791l6.415,4.774l6.42,3.737l6.418,2.68l6.415,1.616l6.42,0.537l449.222,0" style="fill:none;stroke:#228c8d;stroke-width:8.33px;stroke-linecap:butt;"/><path d="M2481.64,534.828l77.01,0l6.417,-0.788l6.418,-2.364l6.417,-3.92l6.418,-5.45l6.417,-6.944l6.418,-8.39l6.417,-9.778l6.418,-11.101l6.417,-12.345l6.418,-13.508l6.417,-14.577l6.418,-15.547l6.417,-16.41l6.417,-17.161l6.418,-17.797l6.417,-18.308l6.418,-18.696l6.417,-18.955l6.418,-19.088l6.417,-19.086l6.418,-18.956l6.417,-18.695l6.418,-18.308l6.417,-17.797l6.418,-17.161l6.417,-16.411l6.418,-15.547l6.417,-14.577l6.417,-13.507l6.418,-12.345l6.417,-11.101l6.418,-9.779l6.417,-8.389l6.418,-6.945l6.417,-5.449l6.418,-3.922l6.417,-2.362l6.418,-0.426l6.417,1.09l6.418,1.813l6.417,2.53l6.415,3.238l6.42,3.936l6.417,4.624l6.415,5.294l6.42,5.952l6.418,6.586l6.415,7.202l6.42,7.796l6.417,8.365l6.418,8.906l6.417,9.421l6.418,9.906l6.417,10.359l6.418,10.779l6.417,11.165l6.417,11.52l6.418,11.834l6.415,12.111l6.42,12.352l6.417,12.554l6.415,12.716l6.42,12.837l6.418,12.918l6.415,12.959l6.42,12.96l6.417,12.918l6.418,12.838l6.417,12.716l6.417,12.553l6.418,12.352l6.417,12.112l6.418,11.834l6.417,11.518l6.418,11.167l6.417,10.779l6.418,10.359l6.417,9.906l6.415,9.42l6.42,8.906l6.418,8.365l6.415,7.796l6.42,7.203l6.417,6.586l6.415,5.95l6.42,5.296l6.417,4.624l6.418,3.936l6.417,3.238l6.418,2.53l6.417,1.812l6.418,1.091l6.417,0.362l513.397,0" style="fill:none;stroke:#62ca79;stroke-width:8.33px;stroke-linecap:butt;"/><path d="M2481.64,534.828l77.01,0l6.417,-0.788l6.418,-2.364l6.417,-3.92l6.418,-5.45l6.417,-6.944l6.418,-8.39l6.417,-9.778l6.418,-11.101l6.417,-12.345l6.418,-13.508l6.417,-14.577l6.418,-15.547l6.417,-16.41l6.417,-17.161l6.418,-17.797l6.417,-18.308l6.418,-18.696l6.417,-18.955l6.418,-19.088l6.417,-19.086l6.418,-18.956l6.417,-18.695l6.418,-18.308l6.417,-17.797l6.418,-17.161l6.417,-16.411l6.418,-15.547l6.417,-14.577l6.417,-13.507l6.418,-12.345l6.417,-11.101l6.418,-9.779l6.417,-8.389l6.418,-6.945l6.417,-5.449l6.418,-3.922l6.417,-2.362l6.418,-0.527l6.417,0.785l6.418,1.304l6.417,1.825l6.415,2.339l6.42,2.847l6.417,3.35l6.415,3.844l6.42,4.33l6.418,4.806l6.415,5.273l6.42,5.725l6.417,6.166l6.418,6.594l6.417,7.003l6.418,7.399l6.417,7.779l6.418,8.14l6.417,8.482l6.417,8.807l6.418,9.11l6.415,9.393l6.42,9.655l6.417,9.896l6.415,10.112l6.42,10.306l6.418,10.479l6.415,10.625l6.42,10.75l6.417,10.848l6.418,10.923l6.417,10.973l6.417,10.996l6.418,10.998l6.417,10.973l6.418,10.923l6.417,10.848l6.418,10.748l6.417,10.627l6.418,10.478l6.417,10.307l6.415,10.112l6.42,9.896l6.418,9.654l6.415,9.394l6.42,9.109l6.417,8.806l6.415,8.484l6.42,8.14l6.417,7.779l6.418,7.399l6.417,7.003l6.418,6.594l6.417,6.166l6.418,5.725l6.417,5.271l6.418,4.808l6.417,4.33l6.418,3.844l6.417,3.35l6.417,2.847l6.418,2.339l6.417,1.823l6.418,1.306l6.417,0.784l6.418,0.262l577.572,0" style="fill:none;stroke:#89d548;stroke-width:8.33px;stroke-linecap:butt;"/><path d="M2481.64,534.828l77.01,0l6.417,-0.788l6.418,-2.364l6.417,-3.92l6.418,-5.45l6.417,-6.944l6.418,-8.39l6.417,-9.778l6.418,-11.101l6.417,-12.345l6.418,-13.508l6.417,-14.577l6.418,-15.547l6.417,-16.41l6.417,-17.161l6.418,-17.797l6.417,-18.308l6.418,-18.696l6.417,-18.955l6.418,-19.088l6.417,-19.086l6.418,-18.956l6.417,-18.695l6.418,-18.308l6.417,-17.797l6.418,-17.161l6.417,-16.411l6.418,-15.547l6.417,-14.577l6.417,-13.507l6.418,-12.345l6.417,-11.101l6.418,-9.779l6.417,-8.389l6.418,-6.945l6.417,-5.449l6.418,-3.922l6.417,-2.362l6.418,-0.592l6.417,0.592l6.418,0.986l6.417,1.376l6.415,1.768l6.42,2.154l6.417,2.535l6.415,2.914l6.42,3.288l6.418,3.657l6.415,4.018l6.42,4.371l6.417,4.72l6.418,5.059l6.417,5.39l6.418,5.711l6.417,6.021l6.418,6.324l6.417,6.614l6.417,6.893l6.418,7.162l6.415,7.415l6.42,7.658l6.417,7.889l6.415,8.104l6.42,8.307l6.418,8.494l6.415,8.667l6.42,8.827l6.417,8.97l6.418,9.097l6.417,9.211l6.417,9.308l6.418,9.387l6.417,9.454l6.418,9.502l6.417,9.536l6.418,9.55l6.417,9.552l6.418,9.536l6.417,9.502l6.415,9.453l6.42,9.388l6.418,9.308l6.415,9.211l6.42,9.097l6.417,8.97l6.415,8.827l6.42,8.667l6.417,8.494l6.418,8.306l6.417,8.104l6.418,7.888l6.417,7.659l6.418,7.416l6.417,7.161l6.418,6.893l6.417,6.615l6.418,6.323l6.417,6.022l6.417,5.71l6.418,5.391l6.417,5.059l6.418,4.719l6.417,4.372l6.418,4.018l6.417,3.655l6.418,3.289l6.417,2.914l6.418,2.536l6.417,2.153l6.418,1.767l6.417,1.378l6.418,0.986l6.417,0.59l6.417,0.198l641.747,0" style="fill:none;stroke:#fde82a;stroke-width:8.33px;stroke-linecap:butt;"/></g></g><g transform="matrix(50,0,0,50,2936.65,589.235)"></g><text x="2628.69px" y="589.235px" style="font-family:'ArialMT', 'Arial';font-size:50px;">&quot;half hanning&quot;</text></g><g><g><clipPath id="_clip5"><rect x="1351.41" y="70.866" width="1007.88" height="485.077"/></clipPath><g clip-path="url(#_clip5)"><rect x="1397.51" y="75.097" width="1604.37" height="462.254" style="fill:#fff;fill-rule:nonzero;"/><path d="M1397.51,537.351l1604.37,0" style="fill:none;stroke:#262626;stroke-width:4.17px;"/><path d="M1397.51,537.351l-0,-9.212" style="fill:none;stroke:#262626;stroke-width:4.17px;"/><path d="M1718.38,537.351l0,-9.212" style="fill:none;stroke:#262626;stroke-width:4.17px;"/><path d="M2039.25,537.351l0,-9.212" style="fill:none;stroke:#262626;stroke-width:4.17px;"/><path d="M2681,537.351l-0,-9.212" style="fill:none;stroke:#262626;stroke-width:0.5px;"/><path d="M3001.87,537.351l-0,-9.212" style="fill:none;stroke:#262626;stroke-width:0.5px;"/><path d="M2364.41,551.17c0,-2.954 1.932,-4.541 5.415,-4.541c3.571,0 5.413,1.613 5.413,4.67c0,3.083 -1.842,4.644 -5.413,4.644c-3.572,0 -5.415,-1.599 -5.415,-4.773Zm5.415,-3.444c-2.18,-0 -3.235,1.096 -3.235,3.38c-0,2.528 0.831,3.792 3.235,3.792c2.358,0 3.234,-1.148 3.234,-3.599c0,-2.412 -0.876,-3.573 -3.234,-3.573Z" style="fill:#262626;fill-rule:nonzero;"/><path d="M2665.07,551.673l1.325,-0.425c1.573,-0.491 2.336,-1.097 2.336,-1.935c0,-0.942 -1.213,-1.587 -3.19,-1.587c-1.864,-0 -3.055,0.748 -3.055,2.077l0,0.116l-2.067,-0l0,-0.194c0,-1.935 2.067,-3.096 5.235,-3.096c3.1,0 5.211,1.097 5.211,2.709c0,1.226 -1.1,2.142 -3.369,2.825l-1.393,0.387c-2.022,0.62 -3.325,1.162 -3.774,2.039l8.536,-0l0,1.109l-10.805,0l-0,-0.039c-0,-1.947 1.64,-2.954 5.01,-3.986Z" style="fill:#262626;fill-rule:nonzero;"/><path d="M2672.79,551.17c-0,-2.954 1.932,-4.541 5.414,-4.541c3.571,0 5.414,1.613 5.414,4.67c-0,3.083 -1.843,4.644 -5.414,4.644c-3.572,0 -5.414,-1.599 -5.414,-4.773Zm5.414,-3.444c-2.179,-0 -3.235,1.096 -3.235,3.38c-0,2.528 0.831,3.792 3.235,3.792c2.358,0 3.234,-1.148 3.234,-3.599c0,-2.412 -0.876,-3.573 -3.234,-3.573Z" style="fill:#262626;fill-rule:nonzero;"/><path d="M2685.28,551.17c0,-2.954 1.932,-4.541 5.414,-4.541c3.572,0 5.414,1.613 5.414,4.67c0,3.083 -1.842,4.644 -5.414,4.644c-3.572,0 -5.414,-1.599 -5.414,-4.773Zm5.414,-3.444c-2.179,-0 -3.235,1.096 -3.235,3.38c0,2.528 0.831,3.792 3.235,3.792c2.359,0 3.235,-1.148 3.235,-3.599c-0,-2.412 -0.876,-3.573 -3.235,-3.573Z" style="fill:#262626;fill-rule:nonzero;"/><path d="M2985.94,551.673l1.325,-0.425c1.573,-0.491 2.337,-1.097 2.337,-1.935c-0,-0.942 -1.213,-1.587 -3.19,-1.587c-1.865,-0 -3.055,0.748 -3.055,2.077l-0,0.116l-2.067,-0l-0,-0.194c-0,-1.935 2.067,-3.096 5.234,-3.096c3.1,0 5.212,1.097 5.212,2.709c-0,1.226 -1.101,2.142 -3.37,2.825l-1.393,0.387c-2.022,0.62 -3.325,1.162 -3.774,2.039l8.537,-0l-0,1.109l-10.806,0l0,-0.039c0,-1.947 1.64,-2.954 5.01,-3.986Z" style="fill:#262626;fill-rule:nonzero;"/><path d="M2995.62,553.337c0.203,0.929 1.438,1.484 3.123,1.484c2.089,-0 3.437,-0.813 3.437,-2c0,-1.212 -1.325,-2.038 -3.437,-2.038c-1.213,0 -2.247,0.31 -2.988,0.839l-1.775,-0l1.236,-4.799l8.312,-0l-0,1.071l-6.807,-0l-0.629,2.463c0.741,-0.412 1.82,-0.606 2.965,-0.606c3.213,0 5.325,1.2 5.325,3.006c-0,1.896 -2.27,3.186 -5.594,3.186c-2.988,0 -5.032,-1.058 -5.235,-2.606l2.067,0Z" style="fill:#262626;fill-rule:nonzero;"/><path d="M3006.16,551.17c0,-2.954 1.932,-4.541 5.414,-4.541c3.572,0 5.414,1.613 5.414,4.67c0,3.083 -1.842,4.644 -5.414,4.644c-3.572,0 -5.414,-1.599 -5.414,-4.773Zm5.414,-3.444c-2.179,-0 -3.235,1.096 -3.235,3.38c0,2.528 0.832,3.792 3.235,3.792c2.359,0 3.235,-1.148 3.235,-3.599c0,-2.412 -0.876,-3.573 -3.235,-3.573Z" style="fill:#262626;fill-rule:nonzero;"/><path d="M1403.92,537.351l70.592,0l6.417,-1.112l6.417,-3.328l6.418,-5.511l6.417,-7.642l6.418,-9.698l6.417,-11.66l6.418,-13.512l6.417,-15.232l6.418,-16.805l6.417,-18.219l6.418,-19.455l6.417,-20.504l6.418,-21.355l6.417,-22.003l6.417,-22.435l6.418,-22.656l6.417,-22.654l6.418,-22.436l6.417,-22.002l6.418,-21.355l6.417,-20.504l6.418,-19.456l6.417,-18.218l6.418,-16.806l6.417,-15.231l6.418,-13.512l6.417,-11.66l6.417,-9.698l6.418,-7.641l6.418,-5.512l6.417,-3.328l6.417,-1.114l6.418,1.114l6.417,3.328l6.418,5.512l6.417,7.641l6.418,9.698l6.417,11.66l6.418,13.512l6.417,15.231l6.417,16.806l6.418,18.218l6.418,19.456l6.417,20.504l6.417,21.355l6.418,22.002l6.417,22.436l6.418,22.654l6.417,22.656l6.418,22.435l6.417,22.003l6.418,21.355l6.417,20.504l6.418,19.455l6.417,18.219l6.418,16.805l6.417,15.232l6.417,13.512l6.418,11.66l6.418,9.698l6.417,7.642l6.417,5.511l6.418,3.328l6.417,1.112l320.874,0" style="fill:none;stroke:#5c3880;stroke-width:8.33px;stroke-linecap:butt;"/><path d="M1403.92,537.351l70.592,0l6.417,-0.832l6.417,-2.492l6.418,-4.132l6.417,-5.745l6.418,-7.316l6.417,-8.832l6.418,-10.286l6.417,-11.666l6.418,-12.961l6.417,-14.165l6.418,-15.263l6.417,-16.254l6.418,-17.127l6.417,-17.879l6.417,-18.497l6.418,-18.986l6.417,-19.336l6.418,-19.548l6.417,-19.618l6.418,-19.548l6.417,-19.337l6.418,-18.985l6.417,-18.499l6.418,-17.876l6.417,-17.127l6.418,-16.254l6.417,-15.264l6.417,-14.165l6.418,-12.961l6.418,-11.666l6.417,-10.286l6.417,-8.832l6.418,-7.316l6.417,-5.745l6.418,-4.132l6.417,-2.491l6.418,-0.835l6.417,0.835l6.418,2.491l6.417,4.132l6.417,5.745l6.418,7.316l6.418,8.832l6.417,10.286l6.417,11.666l6.418,12.961l6.417,14.165l6.418,15.264l6.417,16.254l6.418,17.127l6.417,17.876l6.418,18.499l6.417,18.985l6.418,19.337l6.417,19.548l6.418,19.618l6.417,19.548l6.417,19.336l6.418,18.986l6.418,18.497l6.417,17.879l6.417,17.127l6.418,16.254l6.417,15.263l6.418,14.165l6.417,12.961l6.418,11.666l6.417,10.286l6.417,8.832l6.418,7.316l6.417,5.745l6.418,4.132l6.417,2.492l6.418,0.832l385.048,0" style="fill:none;stroke:#404688;stroke-width:8.33px;stroke-linecap:butt;"/><path d="M1403.92,537.351l70.592,0l6.417,-0.645l6.417,-1.935l6.418,-3.215l6.417,-4.473l6.418,-5.708l6.417,-6.913l6.418,-8.075l6.417,-9.197l6.418,-10.262l6.417,-11.275l6.418,-12.222l6.417,-13.101l6.418,-13.906l6.417,-14.636l6.417,-15.281l6.418,-15.843l6.417,-16.314l6.418,-16.694l6.417,-16.984l6.418,-17.174l6.417,-17.274l6.418,-17.271l6.417,-17.176l6.418,-16.982l6.417,-16.696l6.418,-16.314l6.417,-15.842l6.417,-15.282l6.418,-14.635l6.418,-13.906l6.417,-13.101l6.417,-12.222l6.418,-11.275l6.417,-10.262l6.418,-9.197l6.417,-8.077l6.418,-6.911l6.417,-5.709l6.418,-4.472l6.417,-3.215l6.417,-1.935l6.418,-0.647l6.418,0.647l6.417,1.935l6.417,3.215l6.418,4.472l6.417,5.709l6.418,6.911l6.417,8.077l6.418,9.197l6.417,10.262l6.418,11.275l6.417,12.222l6.418,13.101l6.417,13.906l6.418,14.635l6.417,15.282l6.417,15.842l6.418,16.314l6.418,16.696l6.417,16.982l6.417,17.176l6.418,17.271l6.417,17.274l6.418,17.174l6.417,16.984l6.418,16.694l6.417,16.314l6.417,15.843l6.418,15.281l6.417,14.636l6.418,13.906l6.417,13.101l6.418,12.222l6.417,11.275l6.418,10.262l6.417,9.197l6.418,8.075l6.417,6.913l6.418,5.708l6.417,4.473l6.417,3.215l6.418,1.935l6.418,0.645l449.222,0" style="fill:none;stroke:#228c8d;stroke-width:8.33px;stroke-linecap:butt;"/><path d="M1403.92,537.351l70.592,0l6.417,-0.516l6.417,-1.545l6.418,-2.57l6.417,-3.58l6.418,-4.577l6.417,-5.551l6.418,-6.502l6.417,-7.423l6.418,-8.311l6.417,-9.163l6.418,-9.972l6.417,-10.739l6.418,-11.455l6.417,-12.122l6.417,-12.735l6.418,-13.29l6.417,-13.786l6.418,-14.22l6.417,-14.592l6.418,-14.898l6.417,-15.136l6.418,-15.308l6.417,-15.413l6.418,-15.446l6.417,-15.411l6.418,-15.308l6.417,-15.136l6.417,-14.898l6.418,-14.592l6.418,-14.22l6.417,-13.786l6.417,-13.291l6.418,-12.734l6.417,-12.122l6.418,-11.455l6.417,-10.739l6.418,-9.973l6.417,-9.162l6.418,-8.311l6.417,-7.424l6.417,-6.502l6.418,-5.551l6.418,-4.576l6.417,-3.581l6.417,-2.569l6.418,-1.547l6.417,-0.516l6.418,0.516l6.417,1.547l6.418,2.569l6.417,3.581l6.418,4.576l6.417,5.551l6.418,6.502l6.417,7.424l6.418,8.311l6.417,9.162l6.417,9.973l6.418,10.739l6.418,11.455l6.417,12.122l6.417,12.734l6.418,13.291l6.417,13.786l6.418,14.22l6.417,14.592l6.418,14.898l6.417,15.136l6.417,15.308l6.418,15.411l6.417,15.446l6.418,15.413l6.417,15.308l6.418,15.136l6.417,14.898l6.418,14.592l6.417,14.22l6.418,13.786l6.417,13.29l6.418,12.735l6.417,12.122l6.417,11.455l6.418,10.739l6.418,9.972l6.417,9.163l6.417,8.311l6.418,7.423l6.417,6.502l6.418,5.551l6.417,4.577l6.418,3.58l6.417,2.57l6.418,1.545l6.417,0.516l513.395,0" style="fill:none;stroke:#62ca79;stroke-width:8.33px;stroke-linecap:butt;"/><path d="M1403.92,537.351l70.592,0l6.417,-0.421l6.417,-1.264l6.418,-2.1l6.417,-2.93l6.418,-3.75l6.417,-4.553l6.418,-5.344l6.417,-6.112l6.418,-6.858l6.417,-7.58l6.418,-8.276l6.417,-8.937l6.418,-9.57l6.417,-10.165l6.417,-10.725l6.418,-11.246l6.417,-11.725l6.418,-12.16l6.417,-12.552l6.418,-12.9l6.417,-13.197l6.418,-13.449l6.417,-13.65l6.418,-13.803l6.417,-13.905l6.418,-13.955l6.417,-13.953l6.417,-13.905l6.418,-13.803l6.418,-13.65l6.417,-13.449l6.417,-13.198l6.418,-12.899l6.417,-12.552l6.418,-12.162l6.417,-11.723l6.418,-11.246l6.417,-10.724l6.418,-10.167l6.417,-9.569l6.417,-8.938l6.418,-8.275l6.418,-7.58l6.417,-6.858l6.417,-6.112l6.418,-5.344l6.417,-4.553l6.418,-3.75l6.417,-2.93l6.418,-2.101l6.417,-1.264l6.418,-0.422l6.417,0.422l6.418,1.264l6.417,2.101l6.418,2.93l6.417,3.75l6.417,4.553l6.418,5.344l6.418,6.112l6.417,6.858l6.417,7.58l6.418,8.275l6.417,8.938l6.418,9.569l6.417,10.167l6.418,10.724l6.417,11.246l6.417,11.723l6.418,12.162l6.417,12.552l6.418,12.899l6.417,13.198l6.418,13.449l6.417,13.65l6.418,13.803l6.417,13.905l6.418,13.953l6.417,13.955l6.418,13.905l6.417,13.803l6.417,13.65l6.418,13.449l6.418,13.197l6.417,12.9l6.417,12.552l6.418,12.16l6.417,11.725l6.418,11.246l6.417,10.725l6.418,10.165l6.417,9.57l6.418,8.937l6.417,8.276l6.418,7.58l6.417,6.858l6.418,6.112l6.417,5.344l6.417,4.553l6.418,3.75l6.417,2.93l6.418,2.1l6.417,1.264l6.418,0.421l577.571,0" style="fill:none;stroke:#89d548;stroke-width:8.33px;stroke-linecap:butt;"/><path d="M1403.92,537.351l70.592,0l6.417,-0.349l6.417,-1.053l6.418,-1.75l6.417,-2.442l6.418,-3.126l6.417,-3.801l6.418,-4.468l6.417,-5.116l6.418,-5.75l6.417,-6.369l6.418,-6.967l6.417,-7.544l6.418,-8.097l6.417,-8.627l6.417,-9.129l6.418,-9.605l6.417,-10.051l6.418,-10.467l6.417,-10.852l6.418,-11.202l6.417,-11.518l6.418,-11.801l6.417,-12.047l6.418,-12.257l6.417,-12.428l6.418,-12.563l6.417,-12.66l6.417,-12.719l6.418,-12.737l6.418,-12.718l6.417,-12.659l6.417,-12.564l6.418,-12.428l6.417,-12.257l6.418,-12.047l6.417,-11.801l6.418,-11.52l6.417,-11.201l6.418,-10.851l6.417,-10.467l6.417,-10.051l6.418,-9.606l6.418,-9.129l6.417,-8.626l6.417,-8.097l6.418,-7.544l6.417,-6.967l6.418,-6.369l6.417,-5.75l6.418,-5.117l6.417,-4.466l6.418,-3.803l6.417,-3.126l6.418,-2.443l6.417,-1.748l6.418,-1.052l6.417,-0.352l6.417,0.352l6.418,1.052l6.418,1.748l6.417,2.443l6.417,3.126l6.418,3.803l6.417,4.466l6.418,5.117l6.417,5.75l6.418,6.369l6.417,6.967l6.417,7.544l6.418,8.097l6.417,8.626l6.418,9.129l6.417,9.606l6.418,10.051l6.417,10.467l6.418,10.851l6.417,11.201l6.418,11.52l6.417,11.801l6.418,12.047l6.417,12.257l6.417,12.428l6.418,12.564l6.418,12.659l6.417,12.718l6.417,12.737l6.418,12.719l6.417,12.66l6.418,12.563l6.417,12.428l6.418,12.257l6.417,12.047l6.418,11.801l6.417,11.518l6.418,11.202l6.417,10.852l6.418,10.467l6.417,10.051l6.417,9.605l6.418,9.129l6.417,8.627l6.418,8.097l6.417,7.544l6.418,6.967l6.417,6.369l6.418,5.75l6.417,5.116l6.418,4.468l6.417,3.801l6.418,3.126l6.417,2.442l6.417,1.75l6.418,1.053l6.418,0.349l641.746,0" style="fill:none;stroke:#fde82a;stroke-width:8.33px;stroke-linecap:butt;"/></g></g><g transform="matrix(50,0,0,50,1813.07,591.759)"></g><text x="1599.62px" y="591.759px" style="font-family:'ArialMT', 'Arial';font-size:50px;">&quot;hanning&quot;</text></g><g><g><clipPath id="_clip6"><rect x="273.69" y="68.343" width="1007.88" height="485.077"/></clipPath><g clip-path="url(#_clip6)"><rect x="319.786" y="72.574" width="1604.37" height="462.254" style="fill:#fff;fill-rule:nonzero;"/><path d="M319.786,534.828l1604.37,0" style="fill:none;stroke:#262626;stroke-width:4.17px;"/><path d="M319.786,534.828l-0,-9.212" style="fill:none;stroke:#262626;stroke-width:4.17px;"/><path d="M640.659,534.828l-0,-9.212" style="fill:none;stroke:#262626;stroke-width:4.17px;"/><path d="M961.532,534.828l0,-9.212" style="fill:none;stroke:#262626;stroke-width:4.17px;"/><path d="M1603.28,534.828l-0,-9.212" style="fill:none;stroke:#262626;stroke-width:0.5px;"/><path d="M1924.15,534.828l-0,-9.212" style="fill:none;stroke:#262626;stroke-width:0.5px;"/><path d="M1286.69,548.647c-0,-2.954 1.932,-4.541 5.414,-4.541c3.572,0 5.414,1.613 5.414,4.67c-0,3.083 -1.842,4.644 -5.414,4.644c-3.572,0 -5.414,-1.6 -5.414,-4.773Zm5.414,-3.444c-2.18,-0 -3.235,1.096 -3.235,3.38c-0,2.528 0.831,3.792 3.235,3.792c2.358,0 3.235,-1.148 3.235,-3.599c-0,-2.412 -0.877,-3.573 -3.235,-3.573Z" style="fill:#262626;fill-rule:nonzero;"/><path d="M1587.34,549.15l1.325,-0.426c1.573,-0.49 2.337,-1.096 2.337,-1.935c-0,-0.941 -1.213,-1.586 -3.19,-1.586c-1.865,-0 -3.055,0.748 -3.055,2.077l-0,0.116l-2.067,-0l-0,-0.194c-0,-1.935 2.067,-3.096 5.234,-3.096c3.1,0 5.212,1.097 5.212,2.709c-0,1.226 -1.101,2.142 -3.37,2.825l-1.393,0.387c-2.022,0.62 -3.325,1.161 -3.774,2.039l8.537,-0l-0,1.109l-10.806,-0l0,-0.039c0,-1.948 1.64,-2.954 5.01,-3.986Z" style="fill:#262626;fill-rule:nonzero;"/><path d="M1595.07,548.647c-0,-2.954 1.932,-4.541 5.414,-4.541c3.572,0 5.414,1.613 5.414,4.67c-0,3.083 -1.842,4.644 -5.414,4.644c-3.572,0 -5.414,-1.6 -5.414,-4.773Zm5.414,-3.444c-2.179,-0 -3.235,1.096 -3.235,3.38c-0,2.528 0.831,3.792 3.235,3.792c2.359,0 3.235,-1.148 3.235,-3.599c-0,-2.412 -0.876,-3.573 -3.235,-3.573Z" style="fill:#262626;fill-rule:nonzero;"/><path d="M1607.56,548.647c0,-2.954 1.932,-4.541 5.414,-4.541c3.572,0 5.414,1.613 5.414,4.67c0,3.083 -1.842,4.644 -5.414,4.644c-3.572,0 -5.414,-1.6 -5.414,-4.773Zm5.414,-3.444c-2.179,-0 -3.235,1.096 -3.235,3.38c0,2.528 0.832,3.792 3.235,3.792c2.359,0 3.235,-1.148 3.235,-3.599c0,-2.412 -0.876,-3.573 -3.235,-3.573Z" style="fill:#262626;fill-rule:nonzero;"/><path d="M1908.22,549.15l1.325,-0.426c1.573,-0.49 2.336,-1.096 2.336,-1.935c0,-0.941 -1.213,-1.586 -3.19,-1.586c-1.864,-0 -3.055,0.748 -3.055,2.077l0,0.116l-2.067,-0l0,-0.194c0,-1.935 2.067,-3.096 5.235,-3.096c3.1,0 5.212,1.097 5.212,2.709c-0,1.226 -1.101,2.142 -3.37,2.825l-1.393,0.387c-2.022,0.62 -3.325,1.161 -3.774,2.039l8.537,-0l-0,1.109l-10.806,-0l-0,-0.039c-0,-1.948 1.64,-2.954 5.01,-3.986Z" style="fill:#262626;fill-rule:nonzero;"/><path d="M1917.9,550.814c0.202,0.929 1.438,1.484 3.123,1.484c2.089,-0 3.437,-0.813 3.437,-2c-0,-1.212 -1.326,-2.038 -3.437,-2.038c-1.213,0 -2.247,0.31 -2.988,0.839l-1.775,-0l1.236,-4.799l8.312,-0l-0,1.07l-6.807,0l-0.629,2.464c0.741,-0.412 1.819,-0.606 2.965,-0.606c3.213,0 5.324,1.2 5.324,3.006c0,1.896 -2.269,3.186 -5.594,3.186c-2.987,0 -5.032,-1.058 -5.234,-2.606l2.067,0Z" style="fill:#262626;fill-rule:nonzero;"/><path d="M1928.43,548.647c0,-2.954 1.932,-4.541 5.414,-4.541c3.572,0 5.414,1.613 5.414,4.67c0,3.083 -1.842,4.644 -5.414,4.644c-3.572,0 -5.414,-1.6 -5.414,-4.773Zm5.414,-3.444c-2.179,-0 -3.235,1.096 -3.235,3.38c0,2.528 0.831,3.792 3.235,3.792c2.359,0 3.235,-1.148 3.235,-3.599c0,-2.412 -0.876,-3.573 -3.235,-3.573Z" style="fill:#262626;fill-rule:nonzero;"/><path d="M326.203,534.828l70.592,0l6.418,-0.556l6.417,-1.664l6.418,-2.755l6.417,-3.821l6.418,-4.848l6.417,-5.831l6.417,-6.755l6.418,-7.617l6.417,-8.404l6.418,-9.108l6.417,-9.727l6.418,-10.253l6.417,-10.677l6.418,-11.001l6.417,-11.219l6.418,-11.327l6.417,-11.327l6.418,-11.218l6.417,-11.001l6.418,-10.677l6.417,-10.253l6.417,-9.728l6.418,-9.108l6.417,-8.403l6.418,-7.617l6.417,-6.756l6.418,-5.83l6.417,-4.848l6.418,-3.821l6.417,-2.755l6.418,-1.664l6.417,-0.558l6.418,0.558l6.417,1.664l6.417,2.755l6.418,3.821l6.417,4.848l6.418,5.83l6.417,6.756l6.418,7.617l6.417,8.403l6.418,9.108l6.415,9.728l6.42,10.253l6.417,10.677l6.415,11.001l6.42,11.218l6.418,11.327l6.414,11.327l6.42,11.219l6.418,11.001l6.417,10.677l6.418,10.253l6.417,9.727l6.418,9.108l6.417,8.404l6.418,7.617l6.417,6.755l6.418,5.831l6.415,4.848l6.42,3.821l6.417,2.755l6.415,1.664l6.42,0.556l320.873,0" style="fill:none;stroke:#5c3880;stroke-width:8.33px;stroke-linecap:butt;"/><path d="M326.203,534.828l70.592,0l6.418,-0.499l6.417,-1.495l6.418,-2.479l6.417,-3.448l6.418,-4.39l6.417,-5.298l6.417,-6.171l6.418,-7l6.417,-7.778l6.418,-8.497l6.417,-9.159l6.418,-9.753l6.417,-10.275l6.418,-10.726l6.417,-11.1l6.418,-11.391l6.417,-11.603l6.418,-11.727l6.417,-11.772l6.418,-11.728l6.417,-11.603l6.417,-11.391l6.418,-11.1l6.417,-10.725l6.418,-10.277l6.417,-9.753l6.418,-9.157l6.417,-8.499l6.418,-7.777l6.417,-6.999l6.418,-6.172l6.417,-5.299l6.418,-4.389l6.417,-3.447l6.417,-2.48l6.418,-1.495l6.417,-0.5l6.418,0.5l6.417,1.495l6.418,2.48l6.417,3.447l6.418,4.389l6.415,5.299l6.42,6.172l6.417,6.999l6.415,7.777l6.42,8.499l6.418,9.157l6.414,9.753l6.42,10.277l6.418,10.725l6.417,11.1l6.418,11.391l6.417,11.603l6.418,11.728l6.417,11.772l6.418,11.727l6.417,11.603l6.418,11.391l6.415,11.1l6.42,10.726l6.417,10.275l6.415,9.753l6.42,9.159l6.417,8.497l6.415,7.778l6.42,7l6.418,6.171l6.417,5.298l6.418,4.39l6.417,3.448l6.418,2.479l6.417,1.495l6.418,0.499l385.047,0" style="fill:none;stroke:#404688;stroke-width:8.33px;stroke-linecap:butt;"/><path d="M326.203,534.828l70.592,0l6.418,-0.451l6.417,-1.355l6.418,-2.249l6.417,-3.132l6.418,-3.996l6.417,-4.839l6.417,-5.653l6.418,-6.437l6.417,-7.184l6.418,-7.893l6.417,-8.555l6.418,-9.17l6.417,-9.735l6.418,-10.245l6.417,-10.695l6.418,-11.091l6.417,-11.42l6.418,-11.687l6.417,-11.887l6.418,-12.023l6.417,-12.092l6.417,-12.09l6.418,-12.023l6.417,-11.887l6.418,-11.687l6.417,-11.421l6.418,-11.088l6.417,-10.697l6.418,-10.246l6.417,-9.734l6.418,-9.17l6.417,-8.556l6.418,-7.892l6.417,-7.184l6.417,-6.437l6.418,-5.655l6.417,-4.837l6.418,-3.996l6.417,-3.132l6.418,-2.249l6.417,-1.355l6.418,-0.453l6.415,0.453l6.42,1.355l6.417,2.249l6.415,3.132l6.42,3.996l6.418,4.837l6.414,5.655l6.42,6.437l6.418,7.184l6.417,7.892l6.418,8.556l6.417,9.17l6.418,9.734l6.417,10.246l6.418,10.697l6.417,11.088l6.418,11.421l6.415,11.687l6.42,11.887l6.417,12.023l6.415,12.09l6.42,12.092l6.417,12.023l6.415,11.887l6.42,11.687l6.418,11.42l6.417,11.091l6.418,10.695l6.417,10.245l6.418,9.735l6.417,9.17l6.418,8.555l6.417,7.893l6.417,7.184l6.418,6.437l6.417,5.653l6.418,4.839l6.415,3.996l6.42,3.132l6.417,2.249l6.415,1.355l6.42,0.451l449.223,0" style="fill:none;stroke:#228c8d;stroke-width:8.33px;stroke-linecap:butt;"/><path d="M326.203,534.828l70.592,0l6.418,-0.413l6.417,-1.237l6.418,-2.055l6.417,-2.864l6.418,-3.661l6.417,-4.44l6.417,-5.203l6.418,-5.939l6.417,-6.649l6.418,-7.33l6.417,-7.978l6.418,-8.59l6.417,-9.165l6.418,-9.696l6.417,-10.189l6.418,-10.632l6.417,-11.028l6.418,-11.377l6.417,-11.673l6.418,-11.918l6.417,-12.109l6.417,-12.248l6.418,-12.328l6.417,-12.357l6.418,-12.33l6.417,-12.246l6.418,-12.109l6.417,-11.918l6.418,-11.674l6.417,-11.376l6.418,-11.03l6.417,-10.631l6.418,-10.188l6.417,-9.698l6.417,-9.163l6.418,-8.592l6.417,-7.976l6.418,-7.332l6.417,-6.648l6.418,-5.938l6.417,-5.203l6.418,-4.441l6.415,-3.66l6.42,-2.864l6.417,-2.056l6.415,-1.238l6.42,-0.413l6.418,0.413l6.414,1.238l6.42,2.056l6.418,2.864l6.417,3.66l6.418,4.441l6.417,5.203l6.418,5.938l6.417,6.648l6.418,7.332l6.417,7.976l6.418,8.592l6.415,9.163l6.42,9.698l6.417,10.188l6.415,10.631l6.42,11.03l6.417,11.376l6.415,11.674l6.42,11.918l6.418,12.109l6.417,12.246l6.418,12.33l6.417,12.357l6.418,12.328l6.417,12.248l6.418,12.109l6.417,11.918l6.417,11.673l6.418,11.377l6.417,11.028l6.418,10.632l6.415,10.189l6.42,9.696l6.417,9.165l6.415,8.59l6.42,7.978l6.418,7.33l6.415,6.649l6.42,5.939l6.417,5.203l6.418,4.44l6.417,3.661l6.417,2.864l6.418,2.055l6.417,1.237l6.418,0.413l513.397,0" style="fill:none;stroke:#62ca79;stroke-width:8.33px;stroke-linecap:butt;"/><path d="M326.203,534.828l70.592,0l6.418,-0.378l6.417,-1.138l6.418,-1.891l6.417,-2.637l6.418,-3.373l6.417,-4.099l6.417,-4.809l6.418,-5.5l6.417,-6.173l6.418,-6.823l6.417,-7.448l6.418,-8.044l6.417,-8.613l6.418,-9.149l6.417,-9.652l6.418,-10.121l6.417,-10.552l6.418,-10.945l6.417,-11.296l6.418,-11.61l6.417,-11.877l6.417,-12.105l6.418,-12.285l6.417,-12.423l6.418,-12.513l6.417,-12.56l6.418,-12.559l6.417,-12.515l6.418,-12.421l6.417,-12.287l6.418,-12.103l6.417,-11.878l6.418,-11.609l6.417,-11.297l6.417,-10.944l6.418,-10.552l6.417,-10.121l6.418,-9.652l6.417,-9.149l6.418,-8.613l6.417,-8.045l6.418,-7.447l6.415,-6.822l6.42,-6.174l6.417,-5.5l6.415,-4.808l6.42,-4.098l6.418,-3.375l6.414,-2.637l6.42,-1.89l6.418,-1.138l6.417,-0.38l6.418,0.38l6.417,1.138l6.418,1.89l6.417,2.637l6.418,3.375l6.417,4.098l6.418,4.808l6.415,5.5l6.42,6.174l6.417,6.822l6.415,7.447l6.42,8.045l6.417,8.613l6.415,9.149l6.42,9.652l6.418,10.121l6.417,10.552l6.418,10.944l6.417,11.297l6.418,11.609l6.417,11.878l6.418,12.103l6.417,12.287l6.417,12.421l6.418,12.515l6.417,12.559l6.418,12.56l6.415,12.513l6.42,12.423l6.417,12.285l6.415,12.105l6.42,11.877l6.418,11.61l6.415,11.296l6.42,10.945l6.417,10.552l6.418,10.121l6.417,9.652l6.417,9.149l6.418,8.613l6.417,8.044l6.418,7.448l6.417,6.823l6.418,6.173l6.417,5.5l6.418,4.809l6.417,4.099l6.418,3.373l6.417,2.637l6.418,1.891l6.417,1.138l6.418,0.378l577.571,0" style="fill:none;stroke:#89d548;stroke-width:8.33px;stroke-linecap:butt;"/><path d="M326.203,534.828l70.592,0l6.418,-0.35l6.417,-1.052l6.418,-1.75l6.417,-2.442l6.418,-3.126l6.417,-3.802l6.417,-4.466l6.418,-5.117l6.417,-5.75l6.418,-6.369l6.417,-6.967l6.418,-7.544l6.417,-8.097l6.418,-8.627l6.417,-9.129l6.418,-9.605l6.417,-10.051l6.418,-10.467l6.417,-10.852l6.418,-11.202l6.417,-11.518l6.417,-11.801l6.418,-12.047l6.417,-12.257l6.418,-12.428l6.417,-12.564l6.418,-12.659l6.417,-12.719l6.418,-12.737l6.417,-12.718l6.418,-12.66l6.417,-12.563l6.418,-12.428l6.417,-12.257l6.417,-12.047l6.418,-11.801l6.417,-11.52l6.418,-11.201l6.417,-10.851l6.418,-10.467l6.417,-10.051l6.418,-9.606l6.415,-9.129l6.42,-8.626l6.417,-8.097l6.415,-7.544l6.42,-6.967l6.418,-6.369l6.414,-5.75l6.42,-5.117l6.418,-4.467l6.417,-3.802l6.418,-3.126l6.417,-2.443l6.418,-1.748l6.417,-1.053l6.418,-0.351l6.417,0.351l6.418,1.053l6.415,1.748l6.42,2.443l6.417,3.126l6.415,3.802l6.42,4.467l6.417,5.117l6.415,5.75l6.42,6.369l6.418,6.967l6.417,7.544l6.418,8.097l6.417,8.626l6.418,9.129l6.417,9.606l6.418,10.051l6.417,10.467l6.417,10.851l6.418,11.201l6.417,11.52l6.418,11.801l6.415,12.047l6.42,12.257l6.417,12.428l6.415,12.563l6.42,12.66l6.418,12.718l6.415,12.737l6.42,12.719l6.417,12.659l6.418,12.564l6.417,12.428l6.417,12.257l6.418,12.047l6.417,11.801l6.418,11.518l6.417,11.202l6.418,10.852l6.417,10.467l6.418,10.051l6.417,9.605l6.418,9.129l6.417,8.627l6.418,8.097l6.417,7.544l6.418,6.967l6.417,6.369l6.417,5.75l6.418,5.117l6.417,4.466l6.418,3.802l6.417,3.126l6.418,2.442l6.417,1.75l6.418,1.052l6.417,0.35l641.747,0" style="fill:none;stroke:#fde82a;stroke-width:8.33px;stroke-linecap:butt;"/><g><g><path d="M319.786,534.828l-0,-462.254" style="fill:none;stroke:#262626;stroke-width:4.17px;"/><g><path d="M319.786,534.828l16.042,0" style="fill:none;stroke:#262626;stroke-width:4.17px;"/><path d="M319.786,488.603l16.042,-0" style="fill:none;stroke:#262626;stroke-width:4.17px;"/><path d="M319.786,442.377l16.042,0" style="fill:none;stroke:#262626;stroke-width:4.17px;"/><path d="M319.786,396.152l16.042,-0" style="fill:none;stroke:#262626;stroke-width:4.17px;"/><path d="M319.786,349.927l16.042,-0" style="fill:none;stroke:#262626;stroke-width:4.17px;"/><path d="M319.786,303.701l16.042,0" style="fill:none;stroke:#262626;stroke-width:4.17px;"/><path d="M319.786,257.476l16.042,-0" style="fill:none;stroke:#262626;stroke-width:4.17px;"/><path d="M319.786,211.25l16.042,0" style="fill:none;stroke:#262626;stroke-width:4.17px;"/><path d="M319.786,165.025l16.042,0" style="fill:none;stroke:#262626;stroke-width:4.17px;"/><path d="M319.786,118.8l16.042,-0" style="fill:none;stroke:#262626;stroke-width:4.17px;"/><path d="M319.786,72.574l16.042,0" style="fill:none;stroke:#262626;stroke-width:4.17px;"/></g></g></g></g></g><g transform="matrix(50,0,0,50,820.301,589.235)"></g><text x="448.426px" y="589.235px" style="font-family:'ArialMT', 'Arial';font-size:50px;">&quot;scaled hanning&quot;</text></g><g transform="matrix(100,0,0,100,300.996,146.006)"></g><text x="234.297px" y="146.006px" style="font-family:'ArialMT', 'Arial';font-size:100px;">A</text><g><clipPath id="_clip7"><rect x="319.116" y="676.181" width="3117.89" height="522.638"/></clipPath><g clip-path="url(#_clip7)"><rect x="319.116" y="676.181" width="3326.27" height="522.638" style="fill:#fff;fill-rule:nonzero;"/><path d="M319.116,1198.82l3326.27,-0" style="fill:none;stroke:#262626;stroke-width:8.33px;"/><path d="M319.116,1198.82l-0,-23.876" style="fill:none;stroke:#262626;stroke-width:8.33px;"/><path d="M734.894,1198.82l0,-23.876" style="fill:none;stroke:#262626;stroke-width:8.33px;"/><path d="M1150.68,1198.82l-0,-23.876" style="fill:none;stroke:#262626;stroke-width:8.33px;"/><path d="M1566.46,1198.82l0,-23.876" style="fill:none;stroke:#262626;stroke-width:8.33px;"/><path d="M1982.25,1198.82l-0,-23.876" style="fill:none;stroke:#262626;stroke-width:8.33px;"/><path d="M2398.03,1198.82l0,-23.876" style="fill:none;stroke:#262626;stroke-width:8.33px;"/><path d="M2813.82,1198.82l-0,-23.876" style="fill:none;stroke:#262626;stroke-width:8.33px;"/><path d="M3229.6,1198.82l0,-23.876" style="fill:none;stroke:#262626;stroke-width:8.33px;"/><path d="M319.116,1198.82l-0,-522.638" style="fill:none;stroke:#262626;stroke-width:8.33px;"/><path d="M319.116,1146.56l33.252,0" style="fill:none;stroke:#262626;stroke-width:8.33px;"/><path d="M319.116,1042.03l33.252,-0" style="fill:none;stroke:#262626;stroke-width:8.33px;"/><path d="M319.116,937.5l33.252,0" style="fill:none;stroke:#262626;stroke-width:8.33px;"/><path d="M319.116,832.972l33.252,0" style="fill:none;stroke:#262626;stroke-width:8.33px;"/><path d="M319.116,728.445l33.252,-0" style="fill:none;stroke:#262626;stroke-width:8.33px;"/><g><path d="M323.275,1042.03l3118.37,-0" style="fill:none;stroke:#0072bd;stroke-width:4.17px;stroke-linecap:butt;"/><path d="M323.275,1042.03l3118.37,-0" style="fill:none;stroke:#d95319;stroke-width:4.17px;stroke-linecap:butt;"/><path d="M323.275,1042.03l3118.37,-0" style="fill:none;stroke:#edb120;stroke-width:4.17px;stroke-linecap:butt;"/><path d="M323.275,1042.03l3118.37,-0" style="fill:none;stroke:#7e2f8e;stroke-width:4.17px;stroke-linecap:butt;"/><path d="M323.275,1042.03l3118.37,-0" style="fill:none;stroke:#77ac30;stroke-width:4.17px;stroke-linecap:butt;"/><path d="M323.275,1042.03l3118.37,-0" style="fill:none;stroke:#4dbeee;stroke-width:4.17px;stroke-linecap:butt;"/><path d="M323.275,1042.03l3118.37,-0" style="fill:none;stroke:#a2142f;stroke-width:4.17px;stroke-linecap:butt;"/><path d="M323.275,1042.03l3118.37,-0" style="fill:none;stroke:#0072bd;stroke-width:4.17px;stroke-linecap:butt;"/><path d="M323.275,1042.03l3118.37,-0" style="fill:none;stroke:#d95319;stroke-width:4.17px;stroke-linecap:butt;"/><path d="M323.275,1042.03l3118.37,-0" style="fill:none;stroke:#edb120;stroke-width:4.17px;stroke-linecap:butt;"/><path d="M323.275,1042.03l3118.37,-0" style="fill:none;stroke:#7e2f8e;stroke-width:4.17px;stroke-linecap:butt;"/><path d="M323.275,1042.03l3118.37,-0" style="fill:none;stroke:#77ac30;stroke-width:4.17px;stroke-linecap:butt;"/><path d="M323.275,1042.03l3118.37,-0" style="fill:none;stroke:#4dbeee;stroke-width:4.17px;stroke-linecap:butt;"/><path d="M323.275,1042.03l3118.37,-0" style="fill:none;stroke:#a2142f;stroke-width:4.17px;stroke-linecap:butt;"/><path d="M323.275,1042.03l3118.37,-0" style="fill:none;stroke:#0072bd;stroke-width:4.17px;stroke-linecap:butt;"/><path d="M323.275,1042.03l3118.37,-0" style="fill:none;stroke:#d95319;stroke-width:4.17px;stroke-linecap:butt;"/><path d="M323.275,1042.03l3118.37,-0" style="fill:none;stroke:#edb120;stroke-width:4.17px;stroke-linecap:butt;"/><path d="M323.275,1017.94l4.149,4.767l4.169,4.336l4.149,3.851l4.159,3.33l4.159,2.773l4.159,2.185l4.149,1.578l4.159,0.953l4.159,0.316l3080.96,-0" style="fill:none;stroke:#7e2f8e;stroke-width:4.17px;stroke-linecap:butt;"/><path d="M323.275,981.578l4.149,-4.446l4.169,-4.525l4.149,-4.585l4.159,-4.643l4.159,-4.673l4.159,-4.702l4.149,-4.716l4.159,-4.724l4.159,-4.709l4.16,-4.688l4.159,-4.665l4.159,-4.606l4.159,-4.556l4.149,-4.496l4.169,-4.409l4.159,-4.32l4.149,-4.218l4.169,-4.108l4.149,-3.99l4.159,-3.851l4.16,-3.712l4.159,-3.557l4.149,-3.404l4.169,-3.235l4.149,-3.051l4.159,-2.868l4.159,-2.678l4.159,-2.479l4.159,-2.274l4.149,-2.061l4.169,-1.849l4.149,-1.628l4.159,-1.401l4.17,-1.174l4.149,-0.939l4.159,-0.711l4.159,-0.477l4.159,-0.242l4.159,-0l4.159,0.242l4.149,0.477l4.159,0.711l4.159,0.939l4.159,1.174l4.16,1.401l4.149,1.628l4.169,1.849l4.149,2.061l4.159,2.274l4.169,2.479l4.149,2.678l4.159,2.868l4.159,3.051l4.159,3.235l4.16,3.404l4.159,3.557l4.149,3.712l4.159,3.851l4.159,3.99l4.159,4.108l4.159,4.218l4.149,4.32l4.169,4.409l4.149,4.496l4.159,4.556l4.17,4.606l4.148,4.665l4.16,4.688l4.159,4.709l4.159,4.724l4.159,4.716l4.159,4.702l4.149,4.673l4.169,4.643l4.149,4.585l4.159,4.525l4.159,4.446l4.149,4.371l4.17,4.277l4.148,4.159l4.16,4.049l4.159,3.917l4.159,3.785l4.159,3.638l4.159,3.485l4.159,3.315l4.159,3.14l4.159,2.971l4.149,2.772l4.17,2.575l4.148,2.376l4.16,2.179l4.159,1.951l4.149,1.739l4.169,1.511l4.149,1.291l4.159,1.056l4.159,0.829l4.159,0.594l4.159,0.352l4.159,0.118l2698.44,-0" style="fill:none;stroke:#89d548;stroke-width:4.17px;stroke-linecap:butt;"/><path d="M323.275,1042.03l195.417,-0l4.149,-0.096l4.159,-0.301l4.169,-0.491l4.149,-0.697l4.159,-0.887l4.159,-1.086l4.159,-1.276l4.16,-1.46l4.159,-1.65l4.149,-1.842l4.159,-2.01l4.159,-2.193l4.159,-2.362l4.159,-2.53l4.149,-2.692l4.169,-2.854l4.149,-2.993l4.159,-3.147l4.17,-3.293l4.148,-3.418l4.16,-3.543l4.159,-3.675l4.159,-3.778l4.159,-3.88l4.159,-3.991l4.149,-4.071l4.169,-4.159l4.149,-4.232l4.159,-4.299l4.159,-4.357l4.149,-4.401l4.17,-4.445l4.148,-4.489l4.16,-4.497l4.159,-4.526l4.159,-4.518l4.159,-4.526l4.159,-4.511l4.159,-4.489l4.159,-4.468l4.159,-4.43l4.149,-4.379l4.17,-4.328l4.148,-4.269l4.16,-4.196l4.159,-4.115l4.149,-4.034l4.169,-3.932l4.149,-3.837l4.159,-3.719l4.159,-3.609l4.159,-3.491l4.159,-3.352l4.159,-3.213l4.159,-3.081l4.16,-2.927l4.148,-2.772l4.16,-2.612l4.169,-2.442l4.149,-2.274l4.159,-2.113l4.159,-1.922l4.149,-1.738l4.159,-1.563l4.169,-1.371l4.149,-1.174l4.159,-0.99l4.159,-0.792l4.16,-0.595l4.159,-0.396l4.149,-0.198l4.169,0l4.159,0.198l4.149,0.396l4.159,0.595l4.159,0.792l4.159,0.99l4.159,1.174l4.159,1.371l4.16,1.563l4.149,1.738l4.159,1.922l4.159,2.113l4.159,2.274l4.149,2.442l4.169,2.612l4.159,2.772l4.159,2.927l4.149,3.081l4.159,3.213l4.17,3.352l4.149,3.491l4.159,3.609l4.159,3.719l4.149,3.837l4.169,3.932l4.159,4.034l4.149,4.115l4.159,4.196l4.159,4.269l4.159,4.328l4.159,4.379l4.149,4.43l4.17,4.468l4.159,4.489l4.149,4.511l4.159,4.526l4.159,4.518l4.159,4.526l4.159,4.497l4.159,4.489l4.159,4.445l4.149,4.401l4.159,4.357l4.159,4.299l4.16,4.232l4.149,4.159l4.169,4.071l4.159,3.991l4.159,3.88l4.149,3.778l4.159,3.675l4.169,3.543l4.149,3.418l4.159,3.293l4.159,3.147l4.16,2.993l4.159,2.854l4.159,2.692l4.149,2.53l4.159,2.362l4.159,2.193l4.159,2.01l4.159,1.842l4.149,1.65l4.169,1.46l4.16,1.276l4.148,1.086l4.16,0.887l4.159,0.697l4.159,0.491l4.159,0.301l4.149,0.096l2328.4,-0" style="fill:none;stroke:#fde82a;stroke-width:4.17px;stroke-linecap:butt;"/><path d="M323.275,1042.03l540.511,-0l4.159,-0.243l4.149,-0.733l4.169,-1.225l4.159,-1.695l4.159,-2.156l4.149,-2.604l4.159,-3.03l4.17,-3.44l4.149,-3.821l4.159,-4.182l4.159,-4.503l4.149,-4.79l4.169,-5.054l4.159,-5.274l4.149,-5.458l4.159,-5.597l4.159,-5.699l4.159,-5.766l4.159,-5.787l4.149,-5.766l4.17,-5.707l4.159,-5.604l4.149,-5.45l4.159,-5.274l4.159,-5.054l4.159,-4.797l4.159,-4.497l4.159,-4.173l4.159,-3.829l4.149,-3.441l4.159,-3.029l4.159,-2.611l4.16,-2.157l4.149,-1.694l4.169,-1.218l4.159,-0.734l4.159,-0.249l4.149,0.249l4.159,0.734l4.169,1.218l4.149,1.694l4.159,2.157l4.159,2.611l4.16,3.029l4.159,3.441l4.159,3.829l4.149,4.173l4.159,4.497l4.159,4.797l4.159,5.054l4.159,5.274l4.149,5.45l4.169,5.604l4.16,5.707l4.148,5.766l4.16,5.787l4.159,5.766l4.159,5.699l4.159,5.597l4.149,5.458l4.169,5.274l4.149,5.054l4.159,4.79l4.169,4.503l4.149,4.182l4.159,3.821l4.16,3.44l4.159,3.03l4.159,2.604l4.149,2.156l4.159,1.695l4.169,1.225l4.149,0.733l4.159,0.243l2270.18,-0" style="fill:none;stroke:#228c8d;stroke-width:4.17px;stroke-linecap:butt;"/><path d="M323.275,1042.03l694.357,-0l4.149,-0.133l4.159,-0.41l4.169,-0.675l4.149,-0.939l4.159,-1.21l4.159,-1.475l4.16,-1.731l4.159,-1.973l4.159,-2.223l4.149,-2.464l4.159,-2.692l4.159,-2.912l4.159,-3.133l4.159,-3.337l4.149,-3.521l4.169,-3.704l4.16,-3.881l4.148,-4.034l4.16,-4.189l4.159,-4.32l4.159,-4.438l4.159,-4.548l4.149,-4.636l4.169,-4.716l4.149,-4.775l4.159,-4.827l4.169,-4.863l4.149,-4.878l4.159,-4.886l4.16,-4.878l4.159,-4.848l4.159,-4.797l4.149,-4.754l4.159,-4.68l4.169,-4.591l4.149,-4.49l4.159,-4.379l4.159,-4.254l4.159,-4.115l4.159,-3.961l4.16,-3.793l4.148,-3.616l4.16,-3.433l4.159,-3.227l4.159,-3.03l4.159,-2.802l4.149,-2.575l4.169,-2.347l4.159,-2.098l4.149,-1.856l4.159,-1.599l4.159,-1.342l4.16,-1.078l4.159,-0.815l4.148,-0.542l4.17,-0.272l4.159,0l4.149,0.272l4.169,0.542l4.149,0.815l4.159,1.078l4.159,1.342l4.159,1.599l4.16,1.856l4.148,2.098l4.159,2.347l4.17,2.575l4.149,2.802l4.159,3.03l4.159,3.227l4.159,3.433l4.159,3.616l4.149,3.793l4.159,3.961l4.159,4.115l4.159,4.254l4.16,4.379l4.159,4.49l4.148,4.591l4.17,4.68l4.159,4.754l4.149,4.797l4.159,4.848l4.159,4.878l4.159,4.886l4.159,4.878l4.149,4.863l4.17,4.827l4.159,4.775l4.149,4.716l4.169,4.636l4.149,4.548l4.159,4.438l4.159,4.32l4.159,4.189l4.159,4.034l4.149,3.881l4.159,3.704l4.17,3.521l4.148,3.337l4.16,3.133l4.159,2.912l4.159,2.692l4.159,2.464l4.149,2.223l4.159,1.973l4.169,1.731l4.149,1.475l4.159,1.21l4.159,0.939l4.149,0.675l4.17,0.41l4.159,0.133l1954.18,-0" style="fill:none;stroke:#62ca79;stroke-width:4.17px;stroke-linecap:butt;"/><path d="M323.275,1042.03l956.299,-0l4.16,-0.11l4.148,-0.323l4.159,-0.543l4.17,-0.763l4.149,-0.968l4.159,-1.189l4.159,-1.393l4.159,-1.599l4.159,-1.805l4.149,-2.002l4.159,-2.201l4.159,-2.384l4.159,-2.575l4.16,-2.743l4.159,-2.927l4.148,-3.08l4.17,-3.243l4.159,-3.403l4.149,-3.536l4.159,-3.675l4.159,-3.807l4.159,-3.924l4.159,-4.027l4.149,-4.137l4.17,-4.225l4.159,-4.314l4.149,-4.379l4.169,-4.445l4.149,-4.504l4.159,-4.54l4.159,-4.577l4.159,-4.6l4.159,-4.614l4.149,-4.614l4.159,-4.613l4.17,-4.585l4.148,-4.562l4.16,-4.519l4.159,-4.475l4.159,-4.415l4.159,-4.35l4.149,-4.269l4.159,-4.181l4.169,-4.086l4.149,-3.976l4.159,-3.873l4.159,-3.741l4.149,-3.601l4.17,-3.47l4.159,-3.323l4.149,-3.161l4.159,-3.008l4.159,-2.831l4.159,-2.663l4.159,-2.479l4.149,-2.289l4.169,-2.105l4.159,-1.9l4.149,-1.709l4.159,-1.496l4.16,-1.291l4.159,-1.079l4.159,-0.873l4.159,-0.645l4.159,-0.433l4.149,-0.22l4.159,0l4.169,0.22l4.149,0.433l4.159,0.645l4.159,0.873l4.16,1.079l4.159,1.291l4.148,1.496l4.16,1.709l4.169,1.9l4.149,2.105l4.159,2.289l4.159,2.479l4.149,2.663l4.169,2.831l4.159,3.008l4.149,3.161l4.159,3.323l4.16,3.47l4.159,3.601l4.159,3.741l4.149,3.873l4.169,3.976l4.159,4.086l4.149,4.181l4.159,4.269l4.159,4.35l4.159,4.415l4.159,4.475l4.16,4.519l4.159,4.562l4.148,4.585l4.16,4.613l4.169,4.614l4.149,4.614l4.159,4.6l4.159,4.577l4.159,4.54l4.159,4.504l4.149,4.445l4.159,4.379l4.159,4.314l4.16,4.225l4.159,4.137l4.159,4.027l4.159,3.924l4.159,3.807l4.159,3.675l4.149,3.536l4.159,3.403l4.159,3.243l4.159,3.08l4.16,2.927l4.159,2.743l4.159,2.575l4.159,2.384l4.149,2.201l4.159,2.002l4.159,1.805l4.159,1.599l4.159,1.393l4.159,1.189l4.149,0.968l4.159,0.763l4.159,0.543l4.16,0.323l4.159,0.11l1609.09,-0" style="fill:none;stroke:#fde82a;stroke-width:4.17px;stroke-linecap:butt;"/><path d="M323.275,1042.03l1272.3,-0l4.149,-0.11l4.159,-0.323l4.159,-0.536l4.149,-0.755l4.169,-0.969l4.159,-1.18l4.149,-1.387l4.159,-1.584l4.16,-1.79l4.159,-1.995l4.159,-2.179l4.149,-2.369l4.169,-2.56l4.159,-2.729l4.149,-2.905l4.159,-3.058l4.159,-3.235l4.159,-3.367l4.159,-3.528l4.16,-3.653l4.159,-3.785l4.148,-3.91l4.16,-4.012l4.169,-4.123l4.149,-4.21l4.159,-4.291l4.159,-4.372l4.159,-4.438l4.159,-4.489l4.149,-4.533l4.159,-4.57l4.159,-4.6l4.16,-4.613l4.159,-4.614l4.159,-4.614l4.159,-4.599l4.159,-4.57l4.159,-4.533l4.149,-4.49l4.159,-4.437l4.159,-4.372l4.159,-4.291l4.16,-4.211l4.159,-4.122l4.159,-4.013l4.159,-3.909l4.149,-3.785l4.159,-3.661l4.159,-3.521l4.159,-3.374l4.159,-3.227l4.159,-3.066l4.149,-2.898l4.159,-2.736l4.159,-2.553l4.16,-2.369l4.159,-2.179l4.159,-1.995l4.159,-1.79l4.159,-1.591l4.159,-1.379l4.149,-1.181l4.159,-0.969l4.159,-0.755l4.159,-0.536l4.159,-0.322l4.16,-0.11l4.159,0.11l4.159,0.322l4.149,0.536l4.159,0.755l4.169,0.969l4.149,1.181l4.159,1.379l4.159,1.591l4.149,1.79l4.169,1.995l4.149,2.179l4.159,2.369l4.17,2.553l4.149,2.736l4.159,2.898l4.159,3.066l4.149,3.227l4.169,3.374l4.159,3.521l4.149,3.661l4.169,3.785l4.149,3.909l4.159,4.013l4.16,4.122l4.148,4.211l4.17,4.291l4.159,4.372l4.149,4.437l4.169,4.49l4.149,4.533l4.159,4.57l4.159,4.599l4.149,4.614l4.169,4.614l4.16,4.613l4.148,4.6l4.16,4.57l4.159,4.533l4.159,4.489l4.159,4.438l4.159,4.372l4.159,4.291l4.159,4.21l4.149,4.123l4.159,4.012l4.159,3.91l4.16,3.785l4.159,3.653l4.159,3.528l4.149,3.367l4.169,3.235l4.149,3.058l4.159,2.905l4.159,2.729l4.159,2.56l4.159,2.369l4.159,2.179l4.149,1.995l4.159,1.79l4.159,1.584l4.16,1.387l4.159,1.18l4.159,0.969l4.159,0.755l4.159,0.536l4.159,0.323l4.149,0.11l1288.94,-0" style="fill:none;stroke:#fde82a;stroke-width:4.17px;stroke-linecap:butt;"/><path d="M323.275,1042.03l2008.23,-0l4.159,-0.441l4.159,-1.32l4.159,-2.171l4.159,-3l4.159,-3.771l4.149,-4.481l4.159,-5.135l4.16,-5.692l4.159,-6.169l4.159,-6.551l4.159,-6.814l4.149,-6.983l4.159,-7.042l4.159,-6.983l4.159,-6.815l4.159,-6.543l4.159,-6.176l4.159,-5.692l4.159,-5.128l4.16,-4.489l4.149,-3.77l4.158,-2.993l4.16,-2.178l4.159,-1.321l4.159,-0.44l4.159,0.44l4.149,1.321l4.169,2.178l4.149,2.993l4.159,3.77l4.169,4.489l4.149,5.128l4.16,5.692l4.159,6.176l4.149,6.543l4.169,6.815l4.149,6.983l4.159,7.042l4.169,6.983l4.149,6.814l4.159,6.551l4.159,6.169l4.149,5.692l4.169,5.135l4.16,4.481l4.149,3.771l4.169,3l4.149,2.171l4.159,1.32l4.159,0.441l902.251,-0" style="fill:none;stroke:#5c3880;stroke-width:4.17px;stroke-linecap:butt;"/><path d="M323.275,1042.03l2095.54,-0l4.158,-0.499l4.16,-1.489l4.159,-2.458l4.159,-3.381l4.159,-4.233l4.149,-5.01l4.169,-5.692l4.149,-6.271l4.159,-6.734l4.169,-7.071l4.149,-7.27l4.16,-7.335l4.159,-7.276l4.149,-7.064l4.169,-6.734l4.149,-6.272l4.159,-5.699l4.169,-5.003l4.149,-4.24l4.159,-3.367l4.159,-2.464l4.149,-1.497l4.169,-0.498l4.16,0.498l4.149,1.497l4.169,2.464l4.149,3.367l4.159,4.24l4.159,5.003l4.149,5.699l4.169,6.272l4.159,6.734l4.149,7.064l4.17,7.276l4.149,7.335l4.159,7.27l4.159,7.071l4.159,6.734l4.159,6.271l4.159,5.692l4.149,5.01l4.159,4.233l4.159,3.381l4.159,2.458l4.159,1.489l4.159,0.499l831.567,-0" style="fill:none;stroke:#5c3880;stroke-width:4.17px;stroke-linecap:butt;"/><path d="M323.275,1042.03l2170.39,-0l4.149,-0.338l4.159,-1.027l4.159,-1.694l4.149,-2.355l4.169,-2.971l4.16,-3.565l4.149,-4.115l4.169,-4.621l4.149,-5.083l4.159,-5.458l4.159,-5.809l4.149,-6.067l4.169,-6.264l4.159,-6.396l4.149,-6.448l4.17,-6.425l4.149,-6.338l4.159,-6.177l4.159,-5.941l4.159,-5.641l4.159,-5.281l4.159,-4.856l4.149,-4.372l4.159,-3.844l4.159,-3.279l4.159,-2.662l4.159,-2.025l4.159,-1.364l4.16,-0.682l4.159,-0l4.149,0.682l4.159,1.364l4.159,2.025l4.159,2.662l4.159,3.279l4.159,3.844l4.159,4.372l4.149,4.856l4.159,5.281l4.16,5.641l4.158,5.941l4.16,6.177l4.159,6.338l4.159,6.425l4.159,6.448l4.149,6.396l4.159,6.264l4.159,6.067l4.159,5.809l4.159,5.458l4.159,5.083l4.16,4.621l4.159,4.115l4.148,3.565l4.16,2.971l4.169,2.355l4.149,1.694l4.159,1.027l4.159,0.338l702.675,-0" style="fill:none;stroke:#404688;stroke-width:4.17px;stroke-linecap:butt;"/><path d="M323.275,1042.03l2282.65,-0l4.159,-0.11l4.16,-0.323l4.159,-0.543l4.149,-0.763l4.159,-0.968l4.159,-1.189l4.159,-1.393l4.159,-1.599l4.159,-1.805l4.159,-2.002l4.149,-2.201l4.159,-2.384l4.16,-2.575l4.158,-2.743l4.16,-2.927l4.159,-3.08l4.159,-3.243l4.159,-3.403l4.149,-3.536l4.159,-3.675l4.159,-3.807l4.159,-3.924l4.159,-4.027l4.159,-4.137l4.16,-4.225l4.159,-4.314l4.148,-4.379l4.16,-4.445l4.169,-4.504l4.149,-4.54l4.159,-4.577l4.159,-4.6l4.149,-4.614l4.169,-4.614l4.149,-4.613l4.159,-4.585l4.17,-4.562l4.149,-4.519l4.159,-4.475l4.159,-4.415l4.149,-4.35l4.169,-4.269l4.159,-4.181l4.149,-4.086l4.169,-3.976l4.149,-3.873l4.159,-3.741l4.16,-3.601l4.149,-3.47l4.169,-3.323l4.159,-3.161l4.149,-3.008l4.169,-2.831l4.149,-2.663l4.159,-2.479l4.159,-2.289l4.149,-2.105l4.169,-1.9l4.159,-1.709l4.149,-1.496l4.16,-1.291l4.159,-1.079l4.159,-0.873l4.159,-0.645l4.159,-0.433l4.159,-0.22l4.159,0l4.149,0.22l4.159,0.433l4.159,0.645l4.16,0.873l4.158,1.079l4.16,1.291l4.159,1.496l4.159,1.709l4.149,1.9l4.159,2.105l4.159,2.289l4.159,2.479l4.159,2.663l4.159,2.831l4.159,3.008l4.149,3.161l4.16,3.323l4.158,3.47l4.16,3.601l4.159,3.741l4.159,3.873l4.159,3.976l4.159,4.086l4.149,4.181l4.159,4.269l4.169,4.35l4.149,4.415l4.159,4.475l4.16,4.519l4.149,4.562l4.169,4.585l4.149,4.613l4.159,4.614l4.169,4.614l4.149,4.6l4.159,4.577l4.159,4.54l4.149,4.504l4.17,4.445l4.148,4.379l4.159,4.314l4.17,4.225l4.149,4.137l4.159,4.027l4.159,3.924l4.149,3.807l4.169,3.675l4.159,3.536l4.149,3.403l4.169,3.243l4.149,3.08l4.16,2.927l4.158,2.743l4.149,2.575l4.17,2.384l4.159,2.201l4.149,2.002l4.169,1.805l4.149,1.599l4.159,1.393l4.159,1.189l4.159,0.968l4.159,0.763l4.16,0.543l4.149,0.323l4.159,0.11l282.737,-0" style="fill:none;stroke:#89d548;stroke-width:4.17px;stroke-linecap:butt;"/><path d="M323.275,1042.03l2598.64,-0l4.159,-0.411l4.159,-1.24l4.159,-2.039l4.159,-2.817l4.159,-3.55l4.159,-4.225l4.149,-4.856l4.16,-5.399l4.158,-5.868l4.16,-6.257l4.159,-6.551l4.159,-6.741l4.159,-6.851l4.159,-6.851l4.149,-6.741l4.159,-6.558l4.169,-6.249l4.149,-5.876l4.159,-5.399l4.16,-4.848l4.149,-4.233l4.169,-3.543l4.149,-2.816l4.159,-2.047l4.169,-1.232l4.149,-0.418l4.159,0.418l4.159,1.232l4.149,2.047l4.17,2.816l4.148,3.543l4.159,4.233l4.17,4.848l4.149,5.399l4.159,5.876l4.159,6.249l4.149,6.558l4.169,6.741l4.159,6.851l4.149,6.851l4.169,6.741l4.149,6.551l4.16,6.257l4.158,5.868l4.149,5.399l4.17,4.856l4.159,4.225l4.149,3.55l4.169,2.817l4.149,2.039l4.159,1.24l4.159,0.411l303.523,-0" style="fill:none;stroke:#404688;stroke-width:4.17px;stroke-linecap:butt;"/><path d="M323.275,1042.03l2690.12,-0l4.149,-0.198l4.159,-0.595l4.169,-0.983l4.149,-1.371l4.159,-1.746l4.159,-2.127l4.149,-2.472l4.17,-2.832l4.148,-3.146l4.159,-3.477l4.17,-3.763l4.149,-4.035l4.159,-4.291l4.159,-4.526l4.149,-4.724l4.169,-4.914l4.159,-5.062l4.149,-5.193l4.169,-5.289l4.149,-5.362l4.16,-5.413l4.158,-5.421l4.149,-5.406l4.17,-5.37l4.159,-5.288l4.149,-5.186l4.169,-5.069l4.149,-4.907l4.159,-4.731l4.159,-4.526l4.159,-4.291l4.159,-4.035l4.16,-3.763l4.149,-3.469l4.159,-3.155l4.159,-2.824l4.159,-2.479l4.159,-2.12l4.159,-1.746l4.159,-1.379l4.159,-0.983l4.149,-0.594l4.159,-0.198l4.16,0.198l4.158,0.594l4.16,0.983l4.159,1.379l4.159,1.746l4.149,2.12l4.159,2.479l4.159,2.824l4.159,3.155l4.159,3.469l4.159,3.763l4.159,4.035l4.16,4.291l4.149,4.526l4.158,4.731l4.16,4.907l4.159,5.069l4.159,5.186l4.159,5.288l4.149,5.37l4.169,5.406l4.149,5.421l4.159,5.413l4.169,5.362l4.149,5.289l4.16,5.193l4.159,5.062l4.149,4.914l4.169,4.724l4.149,4.526l4.159,4.291l4.169,4.035l4.149,3.763l4.159,3.477l4.159,3.146l4.149,2.832l4.169,2.472l4.16,2.127l4.149,1.746l4.169,1.371l4.149,0.983l4.159,0.595l4.159,0.198l70.684,-0" style="fill:none;stroke:#228c8d;stroke-width:4.17px;stroke-linecap:butt;"/><path d="M323.275,1042.03l2877.22,-0l4.16,-0.096l4.159,-0.301l4.159,-0.506l4.149,-0.689l4.159,-0.895l4.159,-1.093l4.159,-1.284l4.159,-1.474l4.159,-1.658l4.159,-1.848l4.16,-2.032l4.149,-2.201l4.158,-2.376l4.16,-2.546l4.159,-2.706l4.159,-2.869l4.159,-3.014l4.149,-3.162l4.169,-3.308l4.149,-3.433l4.159,-3.565l4.169,-3.682l4.149,-3.8l4.16,-3.902l4.159,-3.998l4.149,-4.086l4.169,-4.174l4.149,-4.239l4.159,-4.313l4.169,-4.365l4.149,-4.408l4.159,-4.46l4.159,-4.482l4.149,-4.504l4.169,-4.526l4.16,-4.518l4.149,-4.526l4.169,-4.504l4.149,-4.482l4.159,-4.452l4.159,-4.416l4.149,-4.365l4.169,-4.313l4.159,-4.24l4.149,-4.173l4.17,-4.086l4.149,-3.998l4.159,-3.902l4.159,-3.793l4.159,-3.689l4.159,-3.565l4.159,-3.433l4.149,-3.308l4.159,-3.162l4.159,-3.015l4.159,-2.868l4.159,-2.706l4.159,-2.546" style="fill:none;stroke:#89d548;stroke-width:4.17px;stroke-linecap:butt;"/></g><path d="M323.275,970.098l4.187,-5.113l4.207,-5.156l4.186,-5.201l4.197,-5.216l4.197,-5.222l4.197,-5.208l4.187,-5.179l4.197,-5.142l4.197,-5.069l4.197,-5.002l4.197,-4.915l4.197,-4.805l4.197,-4.679l4.186,-4.541l4.208,-4.401l4.196,-4.233l4.187,-4.056l4.207,-3.866l4.187,-3.667l4.197,-3.455l4.197,-3.235l4.197,-2.993l4.187,-2.758l4.207,-2.501l4.186,-2.252l4.197,-1.981l4.197,-1.709l4.197,-1.43l4.197,-1.159l4.187,-0.866l4.207,-0.579l4.187,-0.286l4.197,-0l4.207,0.286l4.187,0.579l4.197,0.866l4.197,1.159l4.196,1.43l4.197,1.709l4.197,1.981l4.187,2.252l4.197,2.501l4.197,2.758l4.197,2.993l4.197,3.235l4.187,3.455l4.207,3.667l4.186,3.749l4.197,3.697l4.208,3.645l4.186,3.573l4.197,3.484l4.197,3.396l4.197,3.286l4.197,3.169l4.197,3.044l4.187,2.905l4.197,2.751l4.197,2.589l4.197,2.421l4.196,2.244l4.187,2.054l4.207,1.856l4.187,1.643l4.197,1.43l4.207,1.211l4.187,0.983l4.197,0.748l4.197,0.506l4.197,0.257l4.197,0.007l4.197,-0.242l4.186,-0.491l4.208,-0.763l4.186,-1.013l4.197,-1.276l4.197,-1.54l4.187,-1.79l4.207,-2.054l4.187,-2.311l4.197,-2.56l4.197,-2.802l4.197,-3.051l4.196,-3.294l4.197,-3.513l4.197,-3.749l4.197,-3.961l4.197,-4.166l4.187,-4.365l4.207,-4.415l4.187,-4.292l4.197,-4.181l4.197,-4.041l4.186,-3.903l4.208,-3.763l4.186,-3.587l4.197,-3.433l4.197,-3.257l4.197,-3.073l4.197,-2.89l4.197,-2.685l4.197,-2.486l4.197,-2.282l4.187,-2.068l4.197,-1.849l4.207,-1.628l4.186,-1.401l4.197,-1.174l4.197,-0.939l4.187,-0.711l4.197,-0.47l4.207,-0.242l4.187,0l4.197,0.242l4.197,0.47l4.197,0.711l4.197,0.939l4.186,1.174l4.208,1.401l4.197,1.628l4.186,1.849l4.197,2.068l4.197,2.282l4.197,2.486l4.197,2.685l4.197,2.89l4.197,3.073l4.187,3.257l4.196,3.433l4.197,3.587l4.197,3.411l4.187,2.861l4.207,2.311l4.197,1.782l4.197,1.254l4.187,0.756l4.197,0.286l4.207,-0.154l4.187,-0.558l4.197,-0.917l4.197,-1.217l4.186,-1.489l4.207,-1.695l4.197,-1.841l4.187,-1.929l4.197,-1.966l4.197,-1.944l4.197,-1.848l4.197,-1.709l4.187,-1.511l4.207,-1.255l4.197,-0.946l4.186,-0.594l4.197,-0.198l4.197,0.235l4.197,0.704l4.197,1.195l4.197,1.717l4.197,2.245l4.187,2.787l4.197,3.323l4.197,3.865l4.197,4.387l4.186,4.9l4.208,5.377l4.196,5.831l4.197,6.235l4.187,6.448l4.197,6.418l4.207,6.353l4.187,6.227l4.197,6.044l4.197,5.803l4.197,5.494l4.197,5.127l4.197,4.702l4.186,4.225l4.197,3.66l4.197,3.184l4.197,2.751l4.197,2.281l4.187,1.746l4.207,1.181l4.197,0.565l4.187,-0.088l4.197,-0.763l4.197,-1.467l4.197,-2.186l4.196,-2.92l4.187,-3.653l4.207,-4.386l4.187,-5.113l4.197,-5.465l4.207,-5.443l4.187,-5.413l4.197,-5.355l4.197,-5.274l4.197,-5.178l4.197,-5.054l4.186,-4.922l4.197,-4.761l4.207,-4.584l4.187,-4.387l4.197,-4.181l4.197,-3.961l4.197,-3.705l4.197,-3.454l4.197,-3.184l4.187,-2.905l4.197,-2.611l4.197,-2.303l4.196,-1.995l4.197,-1.673l4.187,-1.342l4.207,-1.013l4.197,-0.682l4.187,-0.337l4.197,-0l4.197,0.337l4.197,0.682l4.197,1.013l4.186,1.342l4.208,1.673l4.197,1.995l4.186,2.303l4.207,2.611l4.187,2.905l4.197,3.184l4.197,3.454l4.197,3.705l4.197,3.829l4.187,3.785l4.196,3.733l4.208,3.668l4.186,3.587l4.197,3.492l4.197,3.374l4.197,3.249l4.197,3.103l4.187,2.956l4.197,2.78l4.197,2.597l4.197,2.399l4.197,2.186l4.197,1.958l4.186,1.739l4.208,1.474l4.196,1.232l4.187,0.961l4.197,0.69l4.197,0.403l4.197,0.118l4.197,-0.184l4.187,-0.469l4.207,-0.785l4.197,-1.086l4.187,-1.386l4.207,-1.709l4.186,-2.003l4.197,-2.318l4.197,-2.611l4.197,-2.912l4.197,-3.206l4.187,-3.484l4.197,-3.778l4.207,-4.034l4.187,-4.298l4.197,-4.548l4.197,-4.621l4.197,-4.497l4.196,-4.372l4.187,-4.232l4.197,-4.079l4.207,-3.924l4.187,-3.741l4.197,-3.565l4.197,-3.367l4.187,-3.176l4.207,-2.963l4.197,-2.744l4.186,-2.516l4.197,-2.288l4.197,-2.047l4.197,-1.805l4.197,-1.547l4.187,-1.306l4.207,-1.041l4.197,-0.793l4.187,-0.528l4.197,-0.264l4.197,0l4.197,0.264l4.197,0.528l4.196,0.793l4.197,1.041l4.187,1.306l4.197,1.547l4.207,1.805l4.187,2.047l4.197,2.288l4.197,2.516l4.197,2.744l4.197,2.963l4.186,3.176l4.197,3.367l4.208,3.565l4.186,3.616l4.197,3.529l4.197,3.425l4.187,3.323l4.207,3.206l4.197,3.08l4.187,2.949l4.197,2.817l4.197,2.655l4.197,2.502l4.196,2.339l4.187,2.172l4.207,1.995l4.197,1.812l4.187,1.628l4.197,1.445l4.197,1.24l4.197,1.049l4.197,0.836l4.197,0.645l4.197,0.433l4.186,0.235l4.197,0.022l4.207,-0.191l4.187,-0.396l4.197,-0.594l4.197,-0.807l4.197,-1.012l4.197,-1.21l4.187,-1.401l4.197,-1.607l4.196,-1.79l4.198,-1.98l4.196,-2.157l4.197,-2.332l4.197,-2.494l4.197,-2.671l4.197,-2.816l4.187,-2.964l4.197,-3.11l4.197,-3.235l4.197,-3.359l4.197,-3.477l4.197,-3.587l4.197,-3.675l4.197,-3.631l4.186,-3.447l4.197,-3.243l4.197,-3.044l4.197,-2.831l4.197,-2.612l4.197,-2.384l4.187,-2.149l4.197,-1.914l4.196,-1.658l4.198,-1.423l4.196,-1.166l4.197,-0.91l4.197,-0.646l4.197,-0.388l4.197,-0.132l4.187,0.132l4.197,0.388l4.197,0.646l4.197,0.91l4.197,1.166l4.197,1.423l4.197,1.658l4.197,1.914l4.186,2.149l4.197,2.384l4.207,2.612l4.187,2.831l4.197,3.044l4.197,3.243l4.187,3.447l4.207,3.631l4.186,3.807l4.197,3.976l4.208,4.137l4.186,4.276l4.197,4.416l4.197,4.533l4.187,4.651l4.207,4.738l4.197,4.834l4.187,4.9l4.207,4.966l4.187,5.01l4.197,5.04l4.197,5.068l4.186,5.069l4.207,5.069l4.197,5.039l4.187,5.01l4.207,4.966l4.187,4.9l4.197,4.834l4.197,4.738l4.186,4.651l4.208,4.533l4.197,4.416l4.186,4.276l4.197,4.13l4.197,3.983l4.197,3.807l4.197,3.631l4.197,3.448l4.197,3.242l4.197,3.044l4.187,2.832l4.197,2.611l4.197,2.384l4.197,2.149l4.197,1.907l4.196,1.665l4.187,1.423l4.207,1.167l4.187,0.909l4.197,0.646l4.197,0.388l4.197,0.133l230.76,-0l4.197,-0.763l4.197,-2.274l4.197,-3.719l4.197,-5.062l4.197,-6.271l4.186,-7.306l4.197,-8.142l4.197,-8.751l4.197,-9.133l4.197,-9.257l4.197,-9.132l4.187,-8.751l4.197,-8.142l4.197,-7.306l4.197,-6.272l4.197,-5.061l4.197,-3.719l4.197,-2.274l4.196,-0.763l4.198,0.763l4.186,2.274l4.197,2.802l4.197,2.347l4.197,1.849l4.197,1.32l4.197,0.814l4.186,0.308l4.208,-0.117l4.187,-0.499l4.196,-0.792l4.208,-0.998l4.186,-1.115l4.197,-1.129l4.197,-1.071l4.187,-0.917l4.207,-0.704l4.187,-0.44l4.197,-0.154l4.207,0.916l4.187,2.179l4.197,2.809l4.196,3.331l4.187,3.675l4.207,3.858l4.197,3.822l4.187,3.579l4.207,3.096l4.187,2.413l4.197,1.526l4.197,0.455l4.186,-0.756l4.208,-2.076l4.197,-3.447l4.186,-4.834l4.208,-6.184l4.186,-6.521l4.197,-5.817l4.197,-5.017l4.197,-4.123l4.197,-3.169l4.197,-2.134l4.187,-1.078l4.197,-0l4.197,1.078l4.196,2.134l4.198,3.169l4.196,3.991l4.197,4.621l4.197,5.164l4.187,5.597l4.197,5.927l4.197,6.125l4.197,6.191l4.197,6.132l4.197,5.919l4.197,5.583l4.186,5.098l4.197,4.489l4.197,3.755l4.197,2.905l4.197,1.966l4.197,0.924l4.197,-0.183l4.197,-1.342l4.186,-2.553l4.198,-3.763l4.197,-4.431l4.196,-4.562l4.198,-4.665l4.196,-4.761l4.197,-4.856l4.197,-4.915l4.187,-4.98l4.197,-5.018l4.207,-5.053l4.187,-5.069l4.197,-5.076l4.197,-5.061l4.186,-5.04l4.207,-5.003l4.187,-4.943l4.197,-4.886l4.207,-4.819l4.187,-4.709l4.197,-4.621l4.197,-4.497l4.187,-4.372l4.207,-4.232l4.197,-4.079l4.187,-3.924l4.207,-3.741l4.186,-3.565l4.197,-3.367l4.197,-3.176l4.187,-2.963l4.207,-2.744l4.197,-2.516l4.187,-2.288l4.207,-2.047l4.187,-1.805l4.197,-1.547l4.197,-1.306l4.186,-1.041l4.208,-0.793l4.196,-0.528l4.187,-0.264l4.197,0l4.197,0.264l4.197,0.528l4.197,0.793l4.197,1.041l4.197,1.306l4.197,1.547l4.186,1.805l4.197,2.047l4.197,2.288l4.197,2.516l4.197,2.744l4.197,2.963l4.197,3.176l4.197,3.367l4.187,3.565l4.197,3.044l4.197,1.841l4.197,0.668l4.196,-0.426l4.198,-1.415l4.196,-2.282l4.187,-2.985l4.197,-3.521l4.197,-3.858l4.197,-3.998l4.197,-3.939l4.197,-3.668l4.197,-3.198l4.197,-2.538l4.186,-1.702l4.197,-0.719l4.208,0.397l4.186,1.606l4.197,2.897l4.197,4.218l4.187,5.553l4.207,6.844l4.187,7.812l4.197,8.413l4.207,8.898l4.187,9.235l4.196,9.419l4.198,9.396l4.186,9.199l4.207,8.795l4.187,8.193l4.197,7.394l4.207,6.396l4.187,5.238l4.197,3.902l4.197,2.45l4.186,0.888l4.208,-0.763l4.197,-2.443l4.186,-4.152l4.207,-5.127l4.187,-5.362l4.197,-5.553l4.197,-5.707l4.187,-5.809l4.207,-5.736l4.197,-5.502l4.187,-5.223l4.207,-4.9l4.186,-4.547l4.198,-4.167l4.196,-3.748l4.197,-3.301l4.197,-2.839l4.197,-2.347l4.187,-1.841l4.197,-1.328l4.197,-0.799l4.197,-0.272l4.197,0.272l4.197,0.799l4.197,1.328l4.197,1.841l4.186,2.347l4.197,2.839l4.197,3.301l4.197,3.748l4.197,4.042l4.197,4.196l4.197,4.305l4.187,4.394l4.196,4.431l4.197,4.438l4.198,4.423l4.196,4.335l4.197,4.247l4.197,4.086l4.197,3.895l4.187,3.675l4.197,3.396l4.197,3.103l4.197,2.75l4.197,2.377l4.197,1.966l4.186,1.518l4.208,1.049l4.186,0.55l4.197,0.03l4.207,-0.514l4.187,-1.071l4.197,-1.643l4.197,-2.23l4.187,-2.816l4.207,-3.404l4.186,-3.998l4.197,-4.584l4.208,-4.893l4.186,-4.914l4.197,-4.937l4.197,-4.944l4.187,-4.929l4.207,-4.922l4.197,-4.893l4.187,-4.849l4.207,-4.797l4.187,-4.738l4.197,-4.658l4.197,-4.577l4.186,-4.482l4.207,-4.379l4.197,-4.255l4.187,-4.137l4.207,-3.998l4.187,-3.851l4.197,-3.697l4.197,-3.543l4.197,-3.359l4.197,-3.191l4.197,-3l4.187,-2.802l4.196,-2.612l4.197,-2.398l4.197,-2.194l4.197,-1.973l4.197,-1.753" style="fill:none;stroke:#0072bd;stroke-width:8.33px;stroke-linecap:butt;"/></g></g><g><g transform="matrix(66.6667,0,0,66.6667,1995.35,1870.19)"></g><text x="1760.78px" y="1870.19px" style="font-family:'ArialMT', 'Arial';font-size:66.667px;">T<tspan x="1799.03px 1813.84px " y="1870.19px 1870.19px ">im</tspan>e [s]</text><g transform="matrix(6.12323e-17,-1,1,6.12323e-17,-2082.69,1297.71)"><g transform="matrix(66.6667,0,0,66.6667,587.041,2253.08)"></g><text x="135.022px" y="2253.09px" style="font-family:'ArialMT', 'Arial';font-size:66.667px;">Amplitude [mV]</text></g><g transform="matrix(100,0,0,100,299.995,751.321)"></g><text x="233.296px" y="751.321px" style="font-family:'ArialMT', 'Arial';font-size:100px;">B</text><g transform="matrix(100,0,0,100,298.628,1357.86)"></g><text x="226.411px" y="1357.86px" style="font-family:'ArialMT', 'Arial';font-size:100px;">C</text></g><g transform="matrix(50,0,0,50,2441.25,849.91)"></g><text x="2032.78px" y="849.91px" style="font-family:'ArialMT', 'Arial';font-size:50px;">inter-block-interval</text><path d="M2253.58,951.035l-9.375,28.125l-9.375,-28.125l18.75,0Z"/><path d="M2244.2,856.702l-0,99.958" style="fill:none;stroke:#000;stroke-width:6.25px;stroke-linecap:butt;stroke-miterlimit:1.5;"/></g></g></svg>