<?xml version="1.0" encoding="UTF-8"?><svg id="Ebene_1" xmlns="http://www.w3.org/2000/svg" viewBox="0 0 20 20"><defs><style>.cls-1{stroke:#969696;}.cls-1,.cls-2,.cls-3{fill:none;stroke-linejoin:round;}.cls-1,.cls-3{stroke-width:.3px;}.cls-2{stroke:#7d7d7d;stroke-dasharray:0 .98;stroke-width:.22px;}.cls-3{stroke:#525252;}</style></defs><polyline class="cls-3" points="10.6 12.82 10.62 12.82 10.63 12.82 10.65 12.82 10.66 12.82 10.68 12.82 10.7 12.82 10.71 12.82 10.73 12.82 10.74 12.82 10.76 12.82 10.78 12.82 10.79 12.82 10.81 12.82 10.82 12.82 10.84 12.82 10.86 12.82 10.87 12.82 10.89 12.82 10.9 12.82 10.92 12.82 10.94 12.82 10.95 12.82 10.97 12.82 10.98 12.82 11 12.82 11.01 12.82 11.03 12.82 11.05 12.82 11.06 12.82 11.08 12.82 11.09 12.82 11.11 12.82 11.13 12.82 11.14 12.82 11.16 12.82 11.17 12.82 11.19 12.82 11.21 12.82 11.22 12.82 11.24 12.82 11.25 12.82 11.27 12.82 11.29 12.82 11.3 12.82 11.32 12.82 11.33 12.82 11.35 12.82 11.36 12.82 11.38 12.82 11.4 12.82 11.41 12.81 11.43 12.79 11.44 12.75 11.46 12.7 11.48 12.63 11.49 12.55 11.51 12.45 11.52 12.34 11.54 12.21 11.56 12.08 11.57 11.93 11.59 11.76 11.6 11.59 11.62 11.41 11.64 11.21 11.65 11.01 11.67 10.8 11.68 10.58 11.7 10.36 11.71 10.13 11.73 9.89 11.75 9.65 11.76 9.41 11.78 9.17 11.79 8.92 11.81 8.68 11.83 8.43 11.84 8.19 11.86 7.95 11.87 7.72 11.89 7.49 11.91 7.26 11.92 7.04 11.94 6.83 11.95 6.63 11.97 6.44 11.99 6.25 12 6.08 12.02 5.92 12.03 5.77 12.05 5.63 12.06 5.5 12.08 5.39 12.1 5.3 12.11 5.21 12.13 5.14 12.14 5.09 12.16 5.05 12.18 5.03 12.19 5.02 12.21 5.03 12.22 5.05 12.24 5.09 12.26 5.14 12.27 5.21 12.29 5.3 12.3 5.39 12.32 5.5 12.34 5.63 12.35 5.77 12.37 5.92 12.38 6.08 12.4 6.25 12.41 6.44 12.43 6.63 12.45 6.83 12.46 7.04 12.48 7.26 12.49 7.49 12.51 7.72 12.53 7.95 12.54 8.19 12.56 8.43 12.57 8.68 12.59 8.92 12.61 9.17 12.62 9.41 12.64 9.65 12.65 9.89 12.67 10.13 12.69 10.36 12.7 10.58 12.72 10.8 12.73 11.02 12.75 11.22 12.76 11.42 12.78 11.61 12.8 11.78 12.81 11.95 12.83 12.11 12.84 12.25 12.86 12.38 12.88 12.5 12.89 12.6 12.91 12.69 12.92 12.77 12.94 12.83 12.96 12.88 12.97 12.91 12.99 12.92 13 12.93 13.02 12.94 13.04 12.95 13.05 12.96 13.07 12.97 13.08 12.98 13.1 12.99 13.11 13 13.13 13.01 13.15 13.02 13.16 13.03 13.18 13.03 13.19 13.04 13.21 13.05 13.23 13.06 13.24 13.07 13.26 13.07 13.27 13.08 13.29 13.09 13.31 13.09 13.32 13.1 13.34 13.1 13.35 13.11 13.37 13.11 13.39 13.11 13.4 13.12 13.42 13.12 13.43 13.12 13.45 13.12 13.46 13.12 13.48 13.12 13.5 13.12 13.51 13.12 13.53 13.12 13.54 13.11 13.56 13.11 13.58 13.11 13.59 13.1 13.61 13.1 13.62 13.09 13.64 13.09 13.66 13.08 13.67 13.07 13.69 13.07 13.7 13.06 13.72 13.05 13.74 13.04 13.75 13.03 13.77 13.03 13.78 13.02 13.8 13.01 13.81 13 13.83 12.99 13.85 12.98 13.86 12.97 13.88 12.96 13.89 12.95 13.91 12.94 13.93 12.93 13.94 12.92 13.96 12.92 13.97 12.91 13.99 12.9 14.01 12.89 14.02 12.88 14.04 12.87 14.05 12.86 14.07 12.85 14.09 12.84 14.1 12.84 14.12 12.83 14.13 12.82 14.15 12.81 14.16 12.8 14.18 12.8 14.2 12.79 14.21 12.78 14.23 12.78 14.24 12.77 14.26 12.77 14.28 12.76 14.29 12.75 14.31 12.75 14.32 12.74 14.34 12.74 14.36 12.73 14.37 12.72 14.39 12.71 14.4 12.71 14.42 12.7 14.44 12.69 14.45 12.68 14.47 12.68 14.48 12.67 14.5 12.66 14.51 12.65 14.53 12.64 14.55 12.63 14.56 12.62 14.58 12.61 14.59 12.6 14.61 12.59 14.63 12.58 14.64 12.57 14.66 12.56 14.67 12.55 14.69 12.54 14.71 12.53 14.72 12.52 14.74 12.5 14.75 12.49 14.77 12.48 14.79 12.47 14.8 12.46 14.82 12.45 14.83 12.43 14.85 12.42 14.86 12.41 14.88 12.4 14.9 12.38 14.91 12.37 14.93 12.36 14.94 12.35 14.96 12.33 14.98 12.32 14.99 12.31 15.01 12.3 15.02 12.28 15.04 12.27 15.06 12.26 15.07 12.24 15.09 12.23 15.1 12.22 15.12 12.21 15.14 12.19 15.15 12.18 15.17 12.17 15.18 12.15 15.2 12.14 15.21 12.13 15.23 12.12 15.25 12.1 15.26 12.09 15.28 12.08 15.29 12.06 15.31 12.05 15.33 12.04 15.34 12.03 15.36 12.02 15.37 12 15.39 11.99 15.41 11.98 15.42 11.97 15.44 11.96 15.45 11.95 15.47 11.93 15.49 11.92 15.5 11.91 15.52 11.9 15.53 11.89 15.55 11.88 15.56 11.87 15.58 11.86 15.6 11.85 15.61 11.84 15.63 11.83 15.64 11.82 15.66 11.81 15.68 11.8 15.69 11.79 15.71 11.78 15.72 11.77 15.74 11.77 15.76 11.76 15.77 11.75 15.79 11.74 15.8 11.73 15.82 11.73 15.84 11.72 15.85 11.71 15.87 11.71 15.88 11.7 15.9 11.69 15.91 11.69 15.93 11.68 15.95 11.68 15.96 11.67 15.98 11.67 15.99 11.66 16.01 11.66 16.03 11.66 16.04 11.65 16.06 11.65 16.07 11.64 16.09 11.64 16.11 11.64 16.12 11.64 16.14 11.63 16.15 11.63 16.17 11.63 16.19 11.63 16.2 11.63 16.22 11.63 16.23 11.63 16.25 11.63 16.26 11.63 16.28 11.63 16.3 11.63 16.31 11.63 16.33 11.63 16.34 11.63 16.36 11.63 16.38 11.64 16.39 11.64 16.41 11.64 16.42 11.64 16.44 11.65 16.46 11.65 16.47 11.66 16.49 11.66 16.5 11.66 16.52 11.67 16.54 11.67 16.55 11.68 16.57 11.68 16.58 11.69 16.6 11.69 16.61 11.7 16.63 11.71 16.65 11.71 16.66 11.72 16.68 11.73 16.69 11.73 16.71 11.74 16.73 11.75 16.74 11.76 16.76 11.77 16.77 11.77 16.79 11.78 16.81 11.79 16.82 11.8 16.84 11.81 16.85 11.82 16.87 11.83 16.88 11.84 16.9 11.85 16.92 11.86 16.93 11.87 16.95 11.88 16.96 11.89 16.98 11.9 17 11.91 17.01 11.92 17.03 11.93 17.04 11.95 17.06 11.96 17.08 11.97 17.09 11.98 17.11 11.99 17.12 12 17.14 12.02 17.16 12.03 17.17 12.04 17.19 12.05 17.2 12.06 17.22 12.08 17.24 12.09 17.25 12.1 17.27 12.12 17.28 12.13 17.3 12.14 17.31 12.15 17.33 12.17 17.35 12.18 17.36 12.19 17.38 12.21 17.39 12.22 17.41 12.23 17.43 12.24 17.44 12.26 17.46 12.27 17.47 12.28 17.49 12.3 17.51 12.31 17.52 12.32 17.54 12.33 17.55 12.35 17.57 12.36 17.58 12.37 17.6 12.38 17.62 12.4 17.63 12.41 17.65 12.42 17.66 12.43 17.68 12.45 17.7 12.46 17.71 12.47 17.73 12.48 17.74 12.49 17.76 12.5 17.78 12.52 17.79 12.53 17.81 12.54 17.82 12.55 17.84 12.56 17.86 12.57 17.87 12.58 17.89 12.59 17.9 12.6 17.92 12.61 17.94 12.62 17.95 12.63 17.97 12.64 17.98 12.65 18 12.66 18.01 12.67 18.03 12.68 18.05 12.68 18.06 12.69 18.08 12.7 18.09 12.71 18.11 12.71 18.13 12.72 18.14 12.73 18.16 12.74 18.17 12.74 18.19 12.75 18.21 12.75 18.22 12.76 18.24 12.77 18.25 12.77 18.27 12.78 18.28 12.78 18.3 12.79 18.32 12.79 18.33 12.79 18.35 12.8 18.36 12.8 18.38 12.8 18.4 12.81 18.41 12.81 18.43 12.81 18.44 12.81 18.46 12.82 18.48 12.82 18.49 12.82 18.51 12.82 18.52 12.82 18.54 12.82"/><polyline class="cls-1" points="1.76 12.82 1.78 12.82 1.79 12.82 1.81 12.82 1.82 12.82 1.84 12.82 1.86 12.82 1.87 12.82 1.89 12.82 1.9 12.82 1.92 12.82 1.94 12.82 1.95 12.82 1.97 12.82 1.98 12.82 2 12.8 2.01 12.78 2.03 12.75 2.05 12.7 2.06 12.65 2.08 12.59 2.09 12.52 2.11 12.45 2.13 12.36 2.14 12.27 2.16 12.17 2.17 12.06 2.19 11.95 2.21 11.83 2.22 11.7 2.24 11.57 2.25 11.44 2.27 11.3 2.28 11.15 2.3 11.01 2.32 10.86 2.33 10.71 2.35 10.56 2.36 10.41 2.38 10.26 2.4 10.11 2.41 9.96 2.43 9.81 2.44 9.66 2.46 9.52 2.48 9.38 2.49 9.25 2.51 9.12 2.52 8.99 2.54 8.87 2.56 8.76 2.57 8.65 2.59 8.55 2.6 8.46 2.62 8.37 2.63 8.3 2.65 8.23 2.67 8.17 2.68 8.12 2.7 8.07 2.71 8.04 2.73 8.02 2.75 8 2.76 8 2.78 8 2.79 8.02 2.81 8.04 2.83 8.07 2.84 8.12 2.86 8.17 2.87 8.23 2.89 8.3 2.91 8.37 2.92 8.46 2.94 8.55 2.95 8.65 2.97 8.76 2.99 8.87 3 8.99 3.02 9.12 3.03 9.25 3.05 9.38 3.06 9.52 3.08 9.66 3.1 9.81 3.11 9.96 3.13 10.11 3.14 10.26 3.16 10.41 3.18 10.56 3.19 10.71 3.21 10.86 3.22 11.01 3.24 11.15 3.26 11.3 3.27 11.44 3.29 11.58 3.3 11.72 3.32 11.85 3.33 11.98 3.35 12.1 3.37 12.22 3.38 12.34 3.4 12.45 3.41 12.55 3.43 12.64 3.45 12.73 3.46 12.81 3.48 12.89 3.49 12.95 3.51 13.01 3.53 13.06 3.54 13.1 3.56 13.13 3.57 13.16 3.59 13.18 3.61 13.21 3.62 13.24 3.64 13.27 3.65 13.3 3.67 13.33 3.69 13.35 3.7 13.38 3.72 13.41 3.73 13.43 3.75 13.46 3.76 13.48 3.78 13.51 3.8 13.53 3.81 13.55 3.83 13.58 3.84 13.6 3.86 13.61 3.88 13.63 3.89 13.65 3.91 13.66 3.92 13.67 3.94 13.68 3.96 13.69 3.97 13.7 3.99 13.71 4 13.71 4.02 13.72 4.03 13.72 4.05 13.72 4.07 13.71 4.08 13.71 4.1 13.7 4.11 13.69 4.13 13.68 4.15 13.67 4.16 13.66 4.18 13.65 4.19 13.63 4.21 13.61 4.23 13.6 4.24 13.58 4.26 13.55 4.27 13.53 4.29 13.51 4.31 13.48 4.32 13.46 4.34 13.43 4.35 13.41 4.37 13.38 4.39 13.35 4.4 13.33 4.42 13.3 4.43 13.27 4.45 13.24 4.46 13.21 4.48 13.18 4.5 13.16 4.51 13.13 4.53 13.1 4.54 13.08 4.56 13.05 4.58 13.03 4.59 13 4.61 12.98 4.62 12.96 4.64 12.93 4.66 12.91 4.67 12.89 4.69 12.87 4.7 12.86 4.72 12.84 4.73 12.83 4.75 12.81 4.77 12.8 4.78 12.79 4.8 12.78 4.81 12.77 4.83 12.77 4.85 12.76 4.86 12.75 4.88 12.75 4.89 12.74 4.91 12.74 4.93 12.73 4.94 12.72 4.96 12.71 4.97 12.71 4.99 12.7 5.01 12.69 5.02 12.68 5.04 12.68 5.05 12.67 5.07 12.66 5.08 12.65 5.1 12.64 5.12 12.63 5.13 12.62 5.15 12.61 5.16 12.6 5.18 12.59 5.2 12.58 5.21 12.57 5.23 12.56 5.24 12.55 5.26 12.54 5.28 12.53 5.29 12.52 5.31 12.5 5.32 12.49 5.34 12.48 5.36 12.47 5.37 12.46 5.39 12.45 5.4 12.43 5.42 12.42 5.43 12.41 5.45 12.4 5.47 12.38 5.48 12.37 5.5 12.36 5.51 12.35 5.53 12.33 5.55 12.32 5.56 12.31 5.58 12.3 5.59 12.28 5.61 12.27 5.63 12.26 5.64 12.24 5.66 12.23 5.67 12.22 5.69 12.21 5.71 12.19 5.72 12.18 5.74 12.17 5.75 12.15 5.77 12.14 5.78 12.13 5.8 12.12 5.82 12.1 5.83 12.09 5.85 12.08 5.86 12.06 5.88 12.05 5.9 12.04 5.91 12.03 5.93 12.02 5.94 12 5.96 11.99 5.98 11.98 5.99 11.97 6.01 11.96 6.02 11.95 6.04 11.93 6.06 11.92 6.07 11.91 6.09 11.9 6.1 11.89 6.12 11.88 6.13 11.87 6.15 11.86 6.17 11.85 6.18 11.84 6.2 11.83 6.21 11.82 6.23 11.81 6.25 11.8 6.26 11.79 6.28 11.78 6.29 11.77 6.31 11.77 6.33 11.76 6.34 11.75 6.36 11.74 6.37 11.73 6.39 11.73 6.41 11.72 6.42 11.71 6.44 11.71 6.45 11.7 6.47 11.69 6.48 11.69 6.5 11.68 6.52 11.68 6.53 11.67 6.55 11.67 6.56 11.66 6.58 11.66 6.6 11.66 6.61 11.65 6.63 11.65 6.64 11.64 6.66 11.64 6.68 11.64 6.69 11.64 6.71 11.63 6.72 11.63 6.74 11.63 6.76 11.63 6.77 11.63 6.79 11.63 6.8 11.63 6.82 11.63 6.83 11.63 6.85 11.63 6.87 11.63 6.88 11.63 6.9 11.63 6.91 11.63 6.93 11.63 6.95 11.64 6.96 11.64 6.98 11.64 6.99 11.64 7.01 11.65 7.03 11.65 7.04 11.66 7.06 11.66 7.07 11.66 7.09 11.67 7.11 11.67 7.12 11.68 7.14 11.68 7.15 11.69 7.17 11.69 7.18 11.7 7.2 11.71 7.22 11.71 7.23 11.72 7.25 11.73 7.26 11.73 7.28 11.74 7.3 11.75 7.31 11.76 7.33 11.77 7.34 11.77 7.36 11.78 7.38 11.79 7.39 11.8 7.41 11.81 7.42 11.82 7.44 11.83 7.46 11.84 7.47 11.85 7.49 11.86 7.5 11.87 7.52 11.88 7.53 11.89 7.55 11.9 7.57 11.91 7.58 11.92 7.6 11.93 7.61 11.95 7.63 11.96 7.65 11.97 7.66 11.98 7.68 11.99 7.69 12 7.71 12.02 7.73 12.03 7.74 12.04 7.76 12.05 7.77 12.06 7.79 12.08 7.81 12.09 7.82 12.1 7.84 12.12 7.85 12.13 7.87 12.14 7.88 12.15 7.9 12.17 7.92 12.18 7.93 12.19 7.95 12.21 7.96 12.22 7.98 12.23 8 12.24 8.01 12.26 8.03 12.27 8.04 12.28 8.06 12.3 8.08 12.31 8.09 12.32 8.11 12.33 8.12 12.35 8.14 12.36 8.16 12.37 8.17 12.38 8.19 12.4 8.2 12.41 8.22 12.42 8.23 12.43 8.25 12.45 8.27 12.46 8.28 12.47 8.3 12.48 8.31 12.49 8.33 12.5 8.35 12.52 8.36 12.53 8.38 12.54 8.39 12.55 8.41 12.56 8.43 12.57 8.44 12.58 8.46 12.59 8.47 12.6 8.49 12.61 8.51 12.62 8.52 12.63 8.54 12.64 8.55 12.65 8.57 12.66 8.58 12.67 8.6 12.68 8.62 12.68 8.63 12.69 8.65 12.7"/><line class="cls-2" x1="9.6" y1="15.71" x2="9.6" y2="4.14"/><line class="cls-2" x1="19.49" y1="15.71" x2="19.49" y2="4.14"/><line class="cls-2" x1=".81" y1="15.71" x2=".81" y2="4.14"/></svg>