<?xml version="1.0" encoding="UTF-8"?><svg id="Ebene_1" xmlns="http://www.w3.org/2000/svg" viewBox="0 0 20 20"><defs><style>.cls-1{stroke:#969696;}.cls-1,.cls-2,.cls-3{fill:none;stroke-linejoin:round;stroke-width:.3px;}.cls-2{stroke:#dbdbdb;}.cls-3{stroke:#525252;}</style></defs><polyline class="cls-2" points="1.69 12.94 1.71 12.94 1.73 12.94 1.75 12.94 1.76 12.94 1.78 12.94 1.8 12.94 1.82 12.94 1.84 12.94 1.85 12.94 1.87 12.94 1.89 12.94 1.91 12.94 1.92 12.94 1.94 12.94 1.96 12.94 1.98 12.94 1.99 12.94 2.01 12.94 2.03 12.94 2.05 12.94 2.07 12.94 2.08 12.94 2.1 12.94 2.12 12.94 2.14 12.94 2.15 12.94 2.17 12.94 2.19 12.94 2.21 12.94 2.22 12.94 2.24 12.94 2.26 12.94 2.28 12.94 2.3 12.94 2.31 12.94 2.33 12.94 2.35 12.94 2.37 12.94 2.38 12.94 2.4 12.94 2.42 12.94 2.44 12.94 2.46 12.94 2.47 12.94 2.49 12.94 2.51 12.94 2.53 12.94 2.54 12.94 2.56 12.94 2.58 12.94 2.6 12.93 2.61 12.9 2.63 12.86 2.65 12.8 2.67 12.73 2.69 12.63 2.7 12.53 2.72 12.4 2.74 12.26 2.76 12.11 2.77 11.94 2.79 11.76 2.81 11.57 2.83 11.36 2.85 11.15 2.86 10.92 2.88 10.69 2.9 10.44 2.92 10.19 2.93 9.94 2.95 9.68 2.97 9.41 2.99 9.14 3 8.87 3.02 8.6 3.04 8.32 3.06 8.05 3.08 7.78 3.09 7.52 3.11 7.25 3.13 7 3.15 6.75 3.16 6.5 3.18 6.27 3.2 6.04 3.22 5.83 3.23 5.62 3.25 5.43 3.27 5.25 3.29 5.08 3.31 4.93 3.32 4.79 3.34 4.67 3.36 4.56 3.38 4.46 3.39 4.39 3.41 4.33 3.43 4.29 3.45 4.26 3.47 4.25 3.48 4.26 3.5 4.29 3.52 4.33 3.54 4.39 3.55 4.46 3.57 4.56 3.59 4.67 3.61 4.79 3.62 4.93 3.64 5.08 3.66 5.25 3.68 5.43 3.7 5.62 3.71 5.83 3.73 6.04 3.75 6.27 3.77 6.5 3.78 6.75 3.8 7 3.82 7.25 3.84 7.52 3.85 7.78 3.87 8.05 3.89 8.32 3.91 8.6 3.93 8.87 3.94 9.14 3.96 9.41 3.98 9.68 4 9.94 4.01 10.19 4.03 10.45 4.05 10.69 4.07 10.93 4.09 11.16 4.1 11.38 4.12 11.58 4.14 11.78 4.16 11.97 4.17 12.14 4.19 12.3 4.21 12.45 4.23 12.58 4.24 12.69 4.26 12.8 4.28 12.88 4.3 12.95 4.32 13 4.33 13.04 4.35 13.05 4.37 13.06 4.39 13.07 4.4 13.08 4.42 13.09 4.44 13.11 4.46 13.12 4.48 13.13 4.49 13.14 4.51 13.15 4.53 13.16 4.55 13.17 4.56 13.18 4.58 13.19 4.6 13.19 4.62 13.2 4.63 13.21 4.65 13.22 4.67 13.23 4.69 13.23 4.71 13.24 4.72 13.25 4.74 13.25 4.76 13.26 4.78 13.26 4.79 13.26 4.81 13.27 4.83 13.27 4.85 13.27 4.86 13.27 4.88 13.27 4.9 13.27 4.92 13.27 4.94 13.27 4.95 13.27 4.97 13.26 4.99 13.26 5.01 13.26 5.02 13.25 5.04 13.25 5.06 13.24 5.08 13.23 5.1 13.23 5.11 13.22 5.13 13.21 5.15 13.2 5.17 13.19 5.18 13.19 5.2 13.18 5.22 13.17 5.24 13.16 5.25 13.15 5.27 13.14 5.29 13.13 5.31 13.12 5.33 13.11 5.34 13.09 5.36 13.08 5.38 13.07 5.4 13.06 5.41 13.05 5.43 13.04 5.45 13.03 5.47 13.02 5.49 13.01 5.5 13 5.52 12.99 5.54 12.98 5.56 12.97 5.57 12.96 5.59 12.96 5.61 12.95 5.63 12.94 5.64 12.93 5.66 12.92 5.68 12.91 5.7 12.9 5.72 12.9 5.73 12.89 5.75 12.88 5.77 12.88 5.79 12.87 5.8 12.87 5.82 12.86 5.84 12.85 5.86 12.84 5.87 12.84 5.89 12.83 5.91 12.82 5.93 12.81 5.95 12.8 5.96 12.79 5.98 12.79 6 12.78 6.02 12.77 6.03 12.76 6.05 12.75 6.07 12.74 6.09 12.73 6.11 12.72 6.12 12.7 6.14 12.69 6.16 12.68 6.18 12.67 6.19 12.66 6.21 12.65 6.23 12.64 6.25 12.62 6.26 12.61 6.28 12.6 6.3 12.59 6.32 12.57 6.34 12.56 6.35 12.55 6.37 12.53 6.39 12.52 6.41 12.51 6.42 12.49 6.44 12.48 6.46 12.47 6.48 12.45 6.5 12.44 6.51 12.42 6.53 12.41 6.55 12.4 6.57 12.38 6.58 12.37 6.6 12.35 6.62 12.34 6.64 12.32 6.65 12.31 6.67 12.3 6.69 12.28 6.71 12.27 6.73 12.25 6.74 12.24 6.76 12.22 6.78 12.21 6.8 12.2 6.81 12.18 6.83 12.17 6.85 12.15 6.87 12.14 6.88 12.12 6.9 12.11 6.92 12.1 6.94 12.08 6.96 12.07 6.97 12.06 6.99 12.04 7.01 12.03 7.03 12.02 7.04 12 7.06 11.99 7.08 11.98 7.1 11.96 7.12 11.95 7.13 11.94 7.15 11.93 7.17 11.91 7.19 11.9 7.2 11.89 7.22 11.88 7.24 11.87 7.26 11.86 7.27 11.84 7.29 11.83 7.31 11.82 7.33 11.81 7.35 11.8 7.36 11.79 7.38 11.78 7.4 11.77 7.42 11.76 7.43 11.75 7.45 11.75 7.47 11.74 7.49 11.73 7.5 11.72 7.52 11.71 7.54 11.71 7.56 11.7 7.58 11.69 7.59 11.68 7.61 11.68 7.63 11.67 7.65 11.67 7.66 11.66 7.68 11.65 7.7 11.65 7.72 11.64 7.74 11.64 7.75 11.64 7.77 11.63 7.79 11.63 7.81 11.63 7.82 11.62 7.84 11.62 7.86 11.62 7.88 11.62 7.89 11.61 7.91 11.61 7.93 11.61 7.95 11.61 7.97 11.61 7.98 11.61 8 11.61 8.02 11.61 8.04 11.61 8.05 11.61 8.07 11.61 8.09 11.62 8.11 11.62 8.13 11.62 8.14 11.62 8.16 11.63 8.18 11.63 8.2 11.63 8.21 11.64 8.23 11.64 8.25 11.64 8.27 11.65 8.28 11.65 8.3 11.66 8.32 11.67 8.34 11.67 8.36 11.68 8.37 11.68 8.39 11.69 8.41 11.7 8.43 11.71 8.44 11.71 8.46 11.72 8.48 11.73 8.5 11.74 8.51 11.75 8.53 11.75 8.55 11.76 8.57 11.77 8.59 11.78 8.6 11.79 8.62 11.8 8.64 11.81 8.66 11.82 8.67 11.83 8.69 11.84 8.71 11.86 8.73 11.87 8.75 11.88 8.76 11.89 8.78 11.9 8.8 11.91 8.82 11.93 8.83 11.94 8.85 11.95 8.87 11.96 8.89 11.98 8.9 11.99 8.92 12 8.94 12.02 8.96 12.03 8.98 12.04 8.99 12.06 9.01 12.07 9.03 12.08 9.05 12.1 9.06 12.11 9.08 12.12 9.1 12.14 9.12 12.15 9.14 12.17 9.15 12.18 9.17 12.2 9.19 12.21 9.21 12.22 9.22 12.24 9.24 12.25 9.26 12.27 9.28 12.28 9.29 12.3 9.31 12.31 9.33 12.32 9.35 12.34 9.37 12.35 9.38 12.37 9.4 12.38 9.42 12.4 9.44 12.41 9.45 12.42 9.47 12.44 9.49 12.45 9.51 12.47 9.52 12.48 9.54 12.49 9.56 12.51 9.58 12.52 9.6 12.53 9.61 12.55 9.63 12.56 9.65 12.57 9.67 12.59 9.68 12.6 9.7 12.61 9.72 12.62 9.74 12.64 9.76 12.65 9.77 12.66 9.79 12.67 9.81 12.68 9.83 12.69 9.84 12.7 9.86 12.72 9.88 12.73 9.9 12.74 9.91 12.75 9.93 12.76 9.95 12.77 9.97 12.78 9.99 12.79 10 12.79 10.02 12.8 10.04 12.81 10.06 12.82 10.07 12.83 10.09 12.84 10.11 12.84 10.13 12.85 10.15 12.86 10.16 12.87 10.18 12.87 10.2 12.88"/><polyline class="cls-1" points="4.24 12.94 4.26 12.94 4.28 12.94 4.3 12.94 4.31 12.94 4.33 12.94 4.35 12.94 4.37 12.94 4.38 12.94 4.4 12.94 4.42 12.94 4.44 12.94 4.46 12.94 4.47 12.94 4.49 12.94 4.51 12.94 4.53 12.94 4.54 12.94 4.56 12.94 4.58 12.94 4.6 12.94 4.62 12.94 4.63 12.94 4.65 12.94 4.67 12.94 4.69 12.94 4.7 12.94 4.72 12.94 4.74 12.94 4.76 12.94 4.77 12.94 4.79 12.94 4.81 12.94 4.83 12.94 4.85 12.94 4.86 12.94 4.88 12.94 4.9 12.94 4.92 12.94 4.93 12.94 4.95 12.94 4.97 12.94 4.99 12.94 5.01 12.94 5.02 12.94 5.04 12.94 5.06 12.94 5.08 12.94 5.09 12.94 5.11 12.94 5.13 12.94 5.15 12.93 5.16 12.92 5.18 12.89 5.2 12.85 5.22 12.81 5.24 12.75 5.25 12.68 5.27 12.61 5.29 12.52 5.31 12.43 5.32 12.32 5.34 12.21 5.36 12.09 5.38 11.97 5.39 11.83 5.41 11.69 5.43 11.55 5.45 11.4 5.47 11.24 5.48 11.08 5.5 10.92 5.52 10.76 5.54 10.59 5.55 10.42 5.57 10.25 5.59 10.08 5.61 9.92 5.63 9.75 5.64 9.59 5.66 9.42 5.68 9.26 5.7 9.11 5.71 8.96 5.73 8.81 5.75 8.67 5.77 8.54 5.78 8.41 5.8 8.3 5.82 8.18 5.84 8.08 5.86 7.99 5.87 7.9 5.89 7.82 5.91 7.76 5.93 7.7 5.94 7.65 5.96 7.61 5.98 7.59 6 7.57 6.01 7.57 6.03 7.57 6.05 7.59 6.07 7.61 6.09 7.65 6.1 7.7 6.12 7.76 6.14 7.82 6.16 7.9 6.17 7.99 6.19 8.08 6.21 8.18 6.23 8.3 6.25 8.41 6.26 8.54 6.28 8.67 6.3 8.81 6.32 8.96 6.33 9.11 6.35 9.26 6.37 9.42 6.39 9.59 6.4 9.75 6.42 9.92 6.44 10.08 6.46 10.25 6.48 10.42 6.49 10.59 6.51 10.76 6.53 10.92 6.55 11.08 6.56 11.24 6.58 11.4 6.6 11.56 6.62 11.71 6.64 11.86 6.65 12 6.67 12.14 6.69 12.27 6.71 12.4 6.72 12.52 6.74 12.64 6.76 12.74 6.78 12.84 6.79 12.93 6.81 13.01 6.83 13.09 6.85 13.15 6.87 13.2 6.88 13.25 6.9 13.28 6.92 13.31 6.94 13.34 6.95 13.37 6.97 13.41 6.99 13.44 7.01 13.47 7.03 13.5 7.04 13.53 7.06 13.56 7.08 13.59 7.1 13.62 7.11 13.65 7.13 13.68 7.15 13.7 7.17 13.73 7.18 13.76 7.2 13.78 7.22 13.8 7.24 13.82 7.26 13.84 7.27 13.86 7.29 13.87 7.31 13.89 7.33 13.9 7.34 13.91 7.36 13.92 7.38 13.93 7.4 13.93 7.41 13.94 7.43 13.94 7.45 13.94 7.47 13.93 7.49 13.93 7.5 13.92 7.52 13.91 7.54 13.9 7.56 13.89 7.57 13.87 7.59 13.86 7.61 13.84 7.63 13.82 7.65 13.8 7.66 13.78 7.68 13.76 7.7 13.73 7.72 13.7 7.73 13.68 7.75 13.65 7.77 13.62 7.79 13.59 7.8 13.56 7.82 13.53 7.84 13.5 7.86 13.47 7.88 13.44 7.89 13.41 7.91 13.37 7.93 13.34 7.95 13.31 7.96 13.28 7.98 13.25 8 13.22 8.02 13.2 8.04 13.17 8.05 13.14 8.07 13.11 8.09 13.09 8.11 13.06 8.12 13.04 8.14 13.02 8.16 13 8.18 12.98 8.19 12.96 8.21 12.94 8.23 12.93 8.25 12.92 8.27 12.9 8.28 12.89 8.3 12.88 8.32 12.88 8.34 12.87 8.35 12.87 8.37 12.86 8.39 12.85 8.41 12.84 8.42 12.84 8.44 12.83 8.46 12.82 8.48 12.81 8.5 12.8 8.51 12.79 8.53 12.79 8.55 12.78 8.57 12.77 8.58 12.76 8.6 12.75 8.62 12.74 8.64 12.73 8.66 12.72 8.67 12.7 8.69 12.69 8.71 12.68 8.73 12.67 8.74 12.66 8.76 12.65 8.78 12.64 8.8 12.62 8.81 12.61 8.83 12.6 8.85 12.59 8.87 12.57 8.89 12.56 8.9 12.55 8.92 12.53 8.94 12.52 8.96 12.51 8.97 12.49 8.99 12.48 9.01 12.47 9.03 12.45 9.05 12.44 9.06 12.42 9.08 12.41 9.1 12.4 9.12 12.38 9.13 12.37 9.15 12.35 9.17 12.34 9.19 12.32 9.2 12.31 9.22 12.3 9.24 12.28 9.26 12.27 9.28 12.25 9.29 12.24 9.31 12.22 9.33 12.21 9.35 12.2 9.36 12.18 9.38 12.17 9.4 12.15 9.42 12.14 9.43 12.12 9.45 12.11 9.47 12.1 9.49 12.08 9.51 12.07 9.52 12.06 9.54 12.04 9.56 12.03 9.58 12.02 9.59 12 9.61 11.99 9.63 11.98 9.65 11.96 9.67 11.95 9.68 11.94 9.7 11.93 9.72 11.91 9.74 11.9 9.75 11.89 9.77 11.88 9.79 11.87 9.81 11.86 9.82 11.84 9.84 11.83 9.86 11.82 9.88 11.81 9.9 11.8 9.91 11.79 9.93 11.78 9.95 11.77 9.97 11.76 9.98 11.75 10 11.75 10.02 11.74 10.04 11.73 10.05 11.72 10.07 11.71 10.09 11.71 10.11 11.7 10.13 11.69 10.14 11.68 10.16 11.68 10.18 11.67 10.2 11.67 10.21 11.66 10.23 11.65 10.25 11.65 10.27 11.64 10.29 11.64 10.3 11.64 10.32 11.63 10.34 11.63 10.36 11.63 10.37 11.62 10.39 11.62 10.41 11.62 10.43 11.62 10.44 11.61 10.46 11.61 10.48 11.61 10.5 11.61 10.52 11.61 10.53 11.61 10.55 11.61 10.57 11.61 10.59 11.61 10.6 11.61 10.62 11.61 10.64 11.62 10.66 11.62 10.68 11.62 10.69 11.62 10.71 11.63 10.73 11.63 10.75 11.63 10.76 11.64 10.78 11.64 10.8 11.64 10.82 11.65 10.83 11.65 10.85 11.66 10.87 11.67 10.89 11.67 10.91 11.68 10.92 11.68 10.94 11.69 10.96 11.7 10.98 11.71 10.99 11.71 11.01 11.72 11.03 11.73 11.05 11.74 11.06 11.75 11.08 11.75 11.1 11.76 11.12 11.77 11.14 11.78 11.15 11.79 11.17 11.8 11.19 11.81 11.21 11.82 11.22 11.83 11.24 11.84 11.26 11.86 11.28 11.87 11.3 11.88 11.31 11.89 11.33 11.9 11.35 11.91 11.37 11.93 11.38 11.94 11.4 11.95 11.42 11.96 11.44 11.98 11.45 11.99 11.47 12 11.49 12.02 11.51 12.03 11.53 12.04 11.54 12.06 11.56 12.07 11.58 12.08 11.6 12.1 11.61 12.11 11.63 12.12 11.65 12.14 11.67 12.15 11.69 12.17 11.7 12.18 11.72 12.2 11.74 12.21 11.76 12.22 11.77 12.24 11.79 12.25 11.81 12.27 11.83 12.28 11.84 12.3 11.86 12.31 11.88 12.32 11.9 12.34 11.92 12.35 11.93 12.37 11.95 12.38 11.97 12.4 11.99 12.41 12 12.42 12.02 12.44 12.04 12.45 12.06 12.47 12.07 12.48 12.09 12.49 12.11 12.51 12.13 12.52 12.15 12.53 12.16 12.55 12.18 12.56 12.2 12.57 12.22 12.59 12.23 12.6 12.25 12.61 12.27 12.62 12.29 12.64 12.31 12.65 12.32 12.66 12.34 12.67 12.36 12.68 12.38 12.69 12.39 12.7 12.41 12.72 12.43 12.73 12.45 12.74 12.46 12.75 12.48 12.76 12.5 12.77 12.52 12.78 12.54 12.79 12.55 12.79 12.57 12.8 12.59 12.81 12.61 12.82 12.62 12.83 12.64 12.84 12.66 12.84 12.68 12.85 12.69 12.86 12.71 12.87 12.73 12.87 12.75 12.88 12.77 12.88 12.78 12.89 12.8 12.89 12.82 12.9 12.84 12.9 12.85 12.91 12.87 12.91 12.89 12.92 12.91 12.92 12.93 12.92 12.94 12.93 12.96 12.93 12.98 12.93 13 12.93 13.01 12.94 13.03 12.94 13.05 12.94 13.07 12.94 13.08 12.94"/><polyline class="cls-3" points="6.83 12.6 6.85 12.6 6.88 12.6 6.9 12.6 6.92 12.6 6.95 12.6 6.97 12.6 6.99 12.6 7.01 12.6 7.04 12.6 7.06 12.6 7.08 12.6 7.11 12.6 7.13 12.6 7.15 12.6 7.18 12.6 7.2 12.6 7.22 12.6 7.24 12.6 7.27 12.6 7.29 12.6 7.31 12.6 7.34 12.6 7.36 12.6 7.38 12.6 7.41 12.6 7.43 12.6 7.45 12.6 7.47 12.6 7.5 12.6 7.52 12.6 7.54 12.6 7.57 12.6 7.59 12.6 7.61 12.6 7.64 12.6 7.66 12.6 7.68 12.6 7.7 12.6 7.73 12.6 7.75 12.6 7.77 12.6 7.8 12.6 7.82 12.6 7.84 12.6 7.87 12.6 7.89 12.6 7.91 12.6 7.93 12.6 7.96 12.6 7.98 12.6 8 12.6 8.03 12.59 8.05 12.57 8.07 12.55 8.1 12.52 8.12 12.48 8.14 12.43 8.16 12.38 8.19 12.32 8.21 12.26 8.23 12.19 8.26 12.12 8.28 12.04 8.3 11.95 8.33 11.86 8.35 11.77 8.37 11.67 8.39 11.57 8.42 11.47 8.44 11.36 8.46 11.25 8.49 11.14 8.51 11.03 8.53 10.92 8.56 10.8 8.58 10.69 8.6 10.58 8.62 10.46 8.65 10.35 8.67 10.25 8.69 10.14 8.72 10.03 8.74 9.93 8.76 9.84 8.79 9.74 8.81 9.65 8.83 9.57 8.85 9.49 8.88 9.41 8.9 9.34 8.92 9.28 8.95 9.22 8.97 9.17 8.99 9.13 9.02 9.09 9.04 9.06 9.06 9.03 9.08 9.01 9.11 9 9.13 9 9.15 9 9.18 9.01 9.2 9.03 9.22 9.06 9.25 9.09 9.27 9.13 9.29 9.17 9.31 9.22 9.34 9.28 9.36 9.34 9.38 9.41 9.41 9.49 9.43 9.57 9.45 9.65 9.48 9.74 9.5 9.84 9.52 9.93 9.54 10.03 9.57 10.14 9.59 10.25 9.61 10.35 9.64 10.46 9.66 10.58 9.68 10.69 9.71 10.8 9.73 10.92 9.75 11.03 9.77 11.14 9.8 11.25 9.82 11.36 9.84 11.47 9.87 11.57 9.89 11.68 9.91 11.79 9.94 11.89 9.96 11.99 9.98 12.09 10 12.19 10.03 12.28 10.05 12.37 10.07 12.46 10.1 12.54 10.12 12.62 10.14 12.69 10.17 12.76 10.19 12.82 10.21 12.88 10.23 12.93 10.26 12.97 10.28 13.01 10.3 13.04 10.33 13.08 10.35 13.12 10.37 13.15 10.4 13.19 10.42 13.23 10.44 13.26 10.46 13.3 10.49 13.34 10.51 13.37 10.53 13.41 10.56 13.44 10.58 13.47 10.6 13.5 10.63 13.53 10.65 13.56 10.67 13.59 10.69 13.62 10.72 13.64 10.74 13.66 10.76 13.68 10.79 13.7 10.81 13.72 10.83 13.73 10.86 13.75 10.88 13.76 10.9 13.77 10.92 13.77 10.95 13.77 10.97 13.78 10.99 13.77 11.02 13.77 11.04 13.77 11.06 13.76 11.09 13.75 11.11 13.73 11.13 13.72 11.15 13.7 11.18 13.68 11.2 13.66 11.22 13.64 11.25 13.62 11.27 13.59 11.29 13.56 11.32 13.53 11.34 13.5 11.36 13.47 11.38 13.44 11.41 13.41 11.43 13.37 11.45 13.34 11.48 13.3 11.5 13.26 11.52 13.23 11.55 13.19 11.57 13.15 11.59 13.12 11.61 13.08 11.64 13.04 11.66 13.01 11.68 12.97 11.71 12.94 11.73 12.91 11.75 12.87 11.78 12.84 11.8 12.81 11.82 12.78 11.84 12.75 11.87 12.72 11.89 12.7 11.91 12.67 11.94 12.65 11.96 12.63 11.98 12.61 12.01 12.59 12.03 12.58 12.05 12.56 12.07 12.55 12.1 12.54 12.12 12.53 12.14 12.53 12.17 12.52 12.19 12.51 12.21 12.5 12.24 12.49 12.26 12.48 12.28 12.47 12.3 12.47 12.33 12.46 12.35 12.45 12.37 12.44 12.4 12.42 12.42 12.41 12.44 12.4 12.47 12.39 12.49 12.38 12.51 12.37 12.53 12.35 12.56 12.34 12.58 12.33 12.6 12.32 12.63 12.3 12.65 12.29 12.67 12.28 12.69 12.26 12.72 12.25 12.74 12.23 12.76 12.22 12.79 12.2 12.81 12.19 12.83 12.17 12.86 12.16 12.88 12.14 12.9 12.13 12.93 12.11 12.95 12.1 12.97 12.08 12.99 12.07 13.02 12.05 13.04 12.03 13.06 12.02 13.09 12 13.11 11.98 13.13 11.97 13.16 11.95 13.18 11.93 13.2 11.92 13.22 11.9 13.25 11.88 13.27 11.87 13.29 11.85 13.32 11.83 13.34 11.82 13.36 11.8 13.39 11.78 13.41 11.76 13.43 11.75 13.45 11.73 13.48 11.71 13.5 11.7 13.52 11.68 13.55 11.66 13.57 11.65 13.59 11.63 13.62 11.61 13.64 11.6 13.66 11.58 13.68 11.57 13.71 11.55 13.73 11.53 13.75 11.52 13.78 11.5 13.8 11.49 13.82 11.47 13.84 11.46 13.87 11.44 13.89 11.43 13.91 11.41 13.94 11.4 13.96 11.39 13.98 11.37 14.01 11.36 14.03 11.34 14.05 11.33 14.07 11.32 14.1 11.31 14.12 11.29 14.14 11.28 14.17 11.27 14.19 11.26 14.21 11.25 14.24 11.23 14.26 11.22 14.28 11.21 14.3 11.2 14.33 11.19 14.35 11.18 14.37 11.17 14.4 11.16 14.42 11.15 14.44 11.15 14.47 11.14 14.49 11.13 14.51 11.12 14.53 11.12 14.56 11.11 14.58 11.1 14.6 11.1 14.63 11.09 14.65 11.08 14.67 11.08 14.7 11.07 14.72 11.07 14.74 11.07 14.76 11.06 14.79 11.06 14.81 11.05 14.83 11.05 14.86 11.05 14.88 11.05 14.9 11.05 14.93 11.04 14.95 11.04 14.97 11.04 15 11.04 15.02 11.04 15.04 11.04 15.06 11.04 15.09 11.05 15.11 11.05 15.13 11.05 15.16 11.05 15.18 11.05 15.2 11.06 15.22 11.06 15.25 11.07 15.27 11.07 15.29 11.07 15.32 11.08 15.34 11.08 15.36 11.09 15.39 11.1 15.41 11.1 15.43 11.11 15.45 11.12 15.48 11.12 15.5 11.13 15.52 11.14 15.55 11.15 15.57 11.15 15.59 11.16 15.62 11.17 15.64 11.18 15.66 11.19 15.68 11.2 15.71 11.21 15.73 11.22 15.75 11.23 15.78 11.25 15.8 11.26 15.82 11.27 15.85 11.28 15.87 11.29 15.89 11.31 15.91 11.32 15.94 11.33 15.96 11.34 15.98 11.36 16.01 11.37 16.03 11.39 16.05 11.4 16.08 11.41 16.1 11.43 16.12 11.44 16.14 11.46 16.17 11.47 16.19 11.49 16.21 11.5 16.24 11.52 16.26 11.53 16.28 11.55 16.31 11.57 16.33 11.58 16.35 11.6 16.37 11.61 16.4 11.63 16.42 11.65 16.44 11.66 16.47 11.68 16.49 11.7 16.51 11.71 16.54 11.73 16.56 11.75 16.58 11.76 16.6 11.78 16.63 11.8 16.65 11.82 16.67 11.83 16.7 11.85 16.72 11.87 16.74 11.88 16.77 11.9 16.79 11.92 16.81 11.93 16.83 11.95 16.86 11.97 16.88 11.98 16.9 12 16.93 12.02 16.95 12.03 16.97 12.05 17 12.07 17.02 12.08 17.04 12.1 17.06 12.11 17.09 12.13 17.11 12.14 17.13 12.16 17.16 12.17 17.18 12.19 17.2 12.2 17.23 12.22 17.25 12.23 17.27 12.25 17.29 12.26 17.32 12.28 17.34 12.29 17.36 12.3 17.39 12.32 17.41 12.33 17.43 12.34 17.46 12.35 17.48 12.37 17.5 12.38 17.52 12.39 17.55 12.4 17.57 12.41 17.59 12.42 17.62 12.44 17.64 12.45 17.66 12.46 17.69 12.47 17.71 12.47 17.73 12.48 17.75 12.49 17.78 12.5 17.8 12.51 17.82 12.52 17.85 12.53 17.87 12.53 17.89 12.54 17.92 12.55 17.94 12.55 17.96 12.56 17.98 12.56 18.01 12.57 18.03 12.57 18.05 12.58 18.08 12.58 18.1 12.59 18.12 12.59 18.15 12.59 18.17 12.6 18.19 12.6 18.21 12.6 18.24 12.6 18.26 12.6 18.28 12.6 18.31 12.6"/><polyline class="cls-1" points="12.95 12.97 12.97 12.97 12.99 12.97 13.02 12.97 13.04 12.97 13.06 12.97 13.09 12.97 13.11 12.97 13.13 12.97 13.15 12.97 13.18 12.97 13.2 12.97 13.22 12.97 13.25 12.97 13.27 12.97 13.29 12.97 13.32 12.97 13.34 12.97 13.36 12.97 13.38 12.97 13.41 12.97 13.43 12.97 13.45 12.97 13.48 12.97 13.5 12.97 13.52 12.97 13.55 12.97 13.57 12.97 13.59 12.97 13.61 12.97 13.64 12.97 13.66 12.97 13.68 12.97 13.71 12.97 13.73 12.97 13.75 12.97 13.78 12.97 13.8 12.97 13.82 12.96 13.84 12.95 13.87 12.91 13.89 12.87 13.91 12.82 13.94 12.75 13.96 12.67 13.98 12.58 14.01 12.48 14.03 12.37 14.05 12.25 14.07 12.11 14.1 11.97 14.12 11.83 14.14 11.67 14.17 11.51 14.19 11.33 14.21 11.16 14.24 10.98 14.26 10.79 14.28 10.6 14.3 10.41 14.33 10.21 14.35 10.01 14.37 9.81 14.4 9.62 14.42 9.42 14.44 9.22 14.47 9.03 14.49 8.84 14.51 8.65 14.53 8.47 14.56 8.29 14.58 8.12 14.6 7.96 14.63 7.8 14.65 7.65 14.67 7.51 14.7 7.38 14.72 7.26 14.74 7.15 14.76 7.05 14.79 6.96 14.81 6.88 14.83 6.81 14.86 6.76 14.88 6.72 14.9 6.68 14.93 6.67 14.95 6.66 14.97 6.67 14.99 6.68 15.02 6.72 15.04 6.76 15.06 6.81 15.09 6.88 15.11 6.96 15.13 7.05 15.16 7.15 15.18 7.26 15.2 7.38 15.22 7.51 15.25 7.65 15.27 7.8 15.29 7.96 15.32 8.12 15.34 8.29 15.36 8.47 15.39 8.65 15.41 8.84 15.43 9.03 15.45 9.22 15.48 9.42 15.5 9.62 15.52 9.81 15.55 10.01 15.57 10.21 15.59 10.41 15.62 10.6 15.64 10.79 15.66 10.98 15.68 11.16 15.71 11.34 15.73 11.51 15.75 11.68 15.78 11.84 15.8 11.99 15.82 12.14 15.85 12.28 15.87 12.4 15.89 12.52 15.91 12.63 15.94 12.73 15.96 12.82 15.98 12.9 16.01 12.96 16.03 13.02 16.05 13.06 16.08 13.09 16.1 13.11 16.12 13.12 16.14 13.13 16.17 13.14 16.19 13.15 16.21 13.17 16.24 13.18 16.26 13.19 16.28 13.2 16.3 13.21 16.33 13.23 16.35 13.24 16.37 13.25 16.4 13.26 16.42 13.27 16.44 13.28 16.47 13.29 16.49 13.3 16.51 13.31 16.53 13.32 16.56 13.32 16.58 13.33 16.6 13.34 16.63 13.34 16.65 13.35 16.67 13.35 16.7 13.35 16.72 13.36 16.74 13.36 16.77 13.36 16.79 13.36 16.81 13.36"/></svg>